<svg width="169" height="40" viewBox="0 0 169 40" fill="none" xmlns="http://www.w3.org/2000/svg">
<path d="M0 0.505832V9.47725C3.99678 6.08969 7.42874 5.17551 15.8206 5.42564V23.6579C15.5312 30.3141 21.8015 38.8996 33.8599 39.9608C37.7231 40.1214 39.7252 39.8233 42.9278 38.4173V27.3236C41.2878 41.6972 21.8015 34.5586 21.8015 21.2462V0.505832H0Z" fill="white"/>
<path d="M24.9849 2.53164V9.47725C30.6765 3.2069 41.9631 2.43517 42.9278 12.4677V1.37403C35.6251 -1.07631 30.6765 0.0234959 24.9849 2.53164Z" fill="white"/>
<path d="M0 37.935V27.3236C0.868202 34.6551 10.9008 37.6456 14.7594 31.4717C15.5609 33.0892 16.2323 34.054 17.9428 35.9092C14.1806 40.829 4.43748 39.5749 0 37.935Z" fill="white"/>
<path d="M58.1213 0.706627H58.893V39.2934H58.1213V0.706627Z" fill="white"/>
<path d="M71.3493 10.189H72.2175C72.1723 10.605 72.0532 10.9773 71.8603 11.3059C71.6673 11.6345 71.3945 11.8953 71.0418 12.0882C70.6891 12.2781 70.249 12.3731 69.7214 12.3731C69.3356 12.3731 68.9844 12.3007 68.6678 12.156C68.3543 12.0113 68.0845 11.8063 67.8584 11.5411C67.6323 11.2728 67.4575 10.9517 67.3339 10.5779C67.2133 10.2011 67.153 9.78205 67.153 9.32082V8.66514C67.153 8.20391 67.2133 7.78639 67.3339 7.41258C67.4575 7.03576 67.6338 6.7132 67.8629 6.4449C68.0951 6.1766 68.3739 5.9701 68.6995 5.8254C69.0251 5.6807 69.3913 5.60835 69.7983 5.60835C70.2957 5.60835 70.7162 5.7018 71.0599 5.88871C71.4036 6.07561 71.6704 6.33487 71.8603 6.66647C72.0532 6.99506 72.1723 7.37641 72.2175 7.81051H71.3493C71.3071 7.50302 71.2287 7.23924 71.1142 7.01918C70.9996 6.7961 70.8368 6.62427 70.6258 6.50368C70.4148 6.3831 70.1389 6.32281 69.7983 6.32281C69.5059 6.32281 69.2481 6.37858 69.0251 6.49012C68.805 6.60166 68.6196 6.75992 68.4689 6.96492C68.3211 7.16991 68.2096 7.4156 68.1342 7.70198C68.0589 7.98837 68.0212 8.30641 68.0212 8.6561V9.32082C68.0212 9.64338 68.0544 9.94634 68.1207 10.2297C68.19 10.5131 68.294 10.7618 68.4327 10.9758C68.5714 11.1899 68.7477 11.3587 68.9617 11.4823C69.1758 11.6029 69.429 11.6632 69.7214 11.6632C70.0922 11.6632 70.3876 11.6044 70.6077 11.4868C70.8278 11.3692 70.9936 11.2004 71.1051 10.9803C71.2197 10.7603 71.3011 10.4965 71.3493 10.189Z" fill="white"/>
<path d="M76.1651 11.4461V8.92741C76.1651 8.73448 76.1259 8.56717 76.0475 8.42548C75.9722 8.28078 75.8576 8.16924 75.7039 8.09086C75.5501 8.01249 75.3602 7.9733 75.1341 7.9733C74.9231 7.9733 74.7377 8.00947 74.5779 8.08182C74.4212 8.15417 74.2976 8.24913 74.2071 8.3667C74.1197 8.48427 74.076 8.61088 74.076 8.74654H73.2395C73.2395 8.57169 73.2847 8.39835 73.3751 8.22652C73.4655 8.05469 73.5952 7.89944 73.764 7.76077C73.9358 7.61908 74.1408 7.50754 74.379 7.42615C74.6201 7.34174 74.8884 7.29954 75.1839 7.29954C75.5396 7.29954 75.8531 7.35983 76.1244 7.48041C76.3987 7.60099 76.6128 7.78338 76.7665 8.02756C76.9233 8.26873 77.0017 8.57169 77.0017 8.93646V11.2155C77.0017 11.3783 77.0152 11.5516 77.0424 11.7355C77.0725 11.9194 77.1162 12.0777 77.1735 12.2103V12.2827H76.3008C76.2586 12.1862 76.2254 12.0581 76.2013 11.8983C76.1772 11.7355 76.1651 11.5848 76.1651 11.4461ZM76.3098 9.3163L76.3189 9.90414H75.4733C75.2351 9.90414 75.0226 9.92374 74.8357 9.96293C74.6488 9.9991 74.492 10.0549 74.3654 10.1302C74.2388 10.2056 74.1423 10.3006 74.076 10.4151C74.0097 10.5267 73.9765 10.6578 73.9765 10.8085C73.9765 10.9623 74.0112 11.1024 74.0805 11.2291C74.1499 11.3557 74.2539 11.4567 74.3925 11.532C74.5342 11.6044 74.7076 11.6405 74.9125 11.6405C75.1688 11.6405 75.3949 11.5863 75.5908 11.4778C75.7868 11.3692 75.942 11.2366 76.0566 11.0798C76.1742 10.9231 76.2375 10.7708 76.2465 10.6231L76.6037 11.0256C76.5826 11.1522 76.5254 11.2924 76.4319 11.4461C76.3384 11.5998 76.2133 11.7476 76.0566 11.8892C75.9028 12.0279 75.7189 12.144 75.5049 12.2374C75.2939 12.3279 75.0557 12.3731 74.7905 12.3731C74.4589 12.3731 74.1679 12.3083 73.9177 12.1786C73.6705 12.049 73.4776 11.8757 73.3389 11.6586C73.2033 11.4386 73.1354 11.1929 73.1354 10.9216C73.1354 10.6593 73.1867 10.4287 73.2892 10.2297C73.3917 10.0277 73.5394 9.86043 73.7323 9.72779C73.9253 9.59213 74.1574 9.48963 74.4287 9.4203C74.7 9.35096 75.003 9.3163 75.3376 9.3163H76.3098ZM74.8131 6.66647L75.6903 5.33704H76.6987L75.4868 6.66647H74.8131Z" fill="white"/>
<path d="M79.1496 8.36218V12.2827H78.3085V7.38997H79.1043L79.1496 8.36218ZM78.9777 9.65092L78.5888 9.63735C78.5919 9.30273 78.6356 8.99373 78.72 8.71036C78.8044 8.42398 78.9295 8.17527 79.0953 7.96425C79.2611 7.75323 79.4676 7.59044 79.7148 7.47589C79.962 7.35832 80.2484 7.29954 80.5739 7.29954C80.8031 7.29954 81.0141 7.3327 81.207 7.39902C81.3999 7.46232 81.5673 7.56331 81.7089 7.70198C81.8506 7.84065 81.9607 8.01851 82.039 8.23557C82.1174 8.45262 82.1566 8.71489 82.1566 9.02237V12.2827H81.3201V9.06307C81.3201 8.80683 81.2763 8.60184 81.1889 8.44809C81.1045 8.29435 80.9839 8.18281 80.8272 8.11347C80.6704 8.04112 80.4865 8.00495 80.2755 8.00495C80.0283 8.00495 79.8218 8.04866 79.656 8.13608C79.4902 8.22351 79.3576 8.34409 79.2581 8.49783C79.1586 8.65158 79.0862 8.82793 79.041 9.0269C78.9988 9.22284 78.9777 9.43085 78.9777 9.65092ZM82.1476 9.18968L81.5868 9.36151C81.5899 9.09322 81.6336 8.83547 81.718 8.58827C81.8054 8.34108 81.9305 8.12101 82.0933 7.92808C82.2591 7.73514 82.4626 7.58291 82.7038 7.47137C82.9449 7.35681 83.2208 7.29954 83.5313 7.29954C83.7935 7.29954 84.0257 7.3342 84.2276 7.40354C84.4326 7.47287 84.6045 7.57989 84.7431 7.72459C84.8848 7.86628 84.9918 8.04866 85.0642 8.27174C85.1365 8.49482 85.1727 8.7601 85.1727 9.06759V12.2827H84.3316V9.05855C84.3316 8.78422 84.2879 8.57169 84.2005 8.42096C84.1161 8.26722 83.9955 8.1602 83.8387 8.09991C83.685 8.0366 83.5011 8.00495 83.2871 8.00495C83.1032 8.00495 82.9404 8.0366 82.7987 8.09991C82.657 8.16322 82.538 8.25064 82.4415 8.36218C82.345 8.4707 82.2712 8.59581 82.2199 8.73749C82.1717 8.87918 82.1476 9.02991 82.1476 9.18968Z" fill="white"/>
<path d="M89.3238 11.4461V8.92741C89.3238 8.73448 89.2846 8.56717 89.2062 8.42548C89.1309 8.28078 89.0163 8.16924 88.8626 8.09086C88.7088 8.01249 88.5189 7.9733 88.2928 7.9733C88.0818 7.9733 87.8964 8.00947 87.7366 8.08182C87.5799 8.15417 87.4563 8.24913 87.3658 8.3667C87.2784 8.48427 87.2347 8.61088 87.2347 8.74654H86.3981C86.3981 8.57169 86.4434 8.39835 86.5338 8.22652C86.6242 8.05469 86.7539 7.89944 86.9227 7.76077C87.0945 7.61908 87.2995 7.50754 87.5376 7.42615C87.7788 7.34174 88.0471 7.29954 88.3425 7.29954C88.6983 7.29954 89.0118 7.35983 89.2831 7.48041C89.5574 7.60099 89.7715 7.78338 89.9252 8.02756C90.082 8.26873 90.1603 8.57169 90.1603 8.93646V11.2155C90.1603 11.3783 90.1739 11.5516 90.201 11.7355C90.2312 11.9194 90.2749 12.0777 90.3322 12.2103V12.2827H89.4594C89.4172 12.1862 89.3841 12.0581 89.36 11.8983C89.3359 11.7355 89.3238 11.5848 89.3238 11.4461ZM89.4685 9.3163L89.4775 9.90414H88.6319C88.3938 9.90414 88.1813 9.92374 87.9944 9.96293C87.8075 9.9991 87.6507 10.0549 87.5241 10.1302C87.3975 10.2056 87.301 10.3006 87.2347 10.4151C87.1684 10.5267 87.1352 10.6578 87.1352 10.8085C87.1352 10.9623 87.1699 11.1024 87.2392 11.2291C87.3085 11.3557 87.4125 11.4567 87.5512 11.532C87.6929 11.6044 87.8662 11.6405 88.0712 11.6405C88.3275 11.6405 88.5536 11.5863 88.7495 11.4778C88.9455 11.3692 89.1007 11.2366 89.2153 11.0798C89.3328 10.9231 89.3961 10.7708 89.4052 10.6231L89.7624 11.0256C89.7413 11.1522 89.684 11.2924 89.5906 11.4461C89.4971 11.5998 89.372 11.7476 89.2153 11.8892C89.0615 12.0279 88.8776 12.144 88.6636 12.2374C88.4526 12.3279 88.2144 12.3731 87.9491 12.3731C87.6175 12.3731 87.3266 12.3083 87.0764 12.1786C86.8292 12.049 86.6363 11.8757 86.4976 11.6586C86.362 11.4386 86.2941 11.1929 86.2941 10.9216C86.2941 10.6593 86.3454 10.4287 86.4479 10.2297C86.5504 10.0277 86.6981 9.86043 86.891 9.72779C87.084 9.59213 87.3161 9.48963 87.5874 9.4203C87.8587 9.35096 88.1617 9.3163 88.4963 9.3163H89.4685Z" fill="white"/>
<path d="M92.3128 8.15869V12.2827H91.4762V7.38997H92.2901L92.3128 8.15869ZM93.8412 7.36284L93.8366 8.14061C93.7673 8.12553 93.701 8.11649 93.6377 8.11347C93.5774 8.10745 93.508 8.10443 93.4297 8.10443C93.2367 8.10443 93.0664 8.13458 92.9187 8.19487C92.771 8.25516 92.6459 8.33957 92.5434 8.44809C92.4409 8.55662 92.3595 8.68625 92.2992 8.83698C92.2419 8.98469 92.2042 9.14748 92.1861 9.32534L91.951 9.461C91.951 9.16557 91.9796 8.88822 92.0369 8.62897C92.0972 8.36971 92.1892 8.14061 92.3128 7.94164C92.4364 7.73967 92.5931 7.58291 92.783 7.47137C92.976 7.35681 93.2051 7.29954 93.4704 7.29954C93.5307 7.29954 93.6 7.30707 93.6784 7.32214C93.7567 7.3342 93.811 7.34777 93.8412 7.36284Z" fill="white"/>
<path d="M97.3185 11.4461V8.92741C97.3185 8.73448 97.2793 8.56717 97.2009 8.42548C97.1255 8.28078 97.011 8.16924 96.8573 8.09086C96.7035 8.01249 96.5136 7.9733 96.2875 7.9733C96.0765 7.9733 95.8911 8.00947 95.7313 8.08182C95.5745 8.15417 95.4509 8.24913 95.3605 8.3667C95.2731 8.48427 95.2294 8.61088 95.2294 8.74654H94.3928C94.3928 8.57169 94.438 8.39835 94.5285 8.22652C94.6189 8.05469 94.7485 7.89944 94.9174 7.76077C95.0892 7.61908 95.2942 7.50754 95.5323 7.42615C95.7735 7.34174 96.0418 7.29954 96.3372 7.29954C96.693 7.29954 97.0065 7.35983 97.2778 7.48041C97.5521 7.60099 97.7661 7.78338 97.9199 8.02756C98.0767 8.26873 98.155 8.57169 98.155 8.93646V11.2155C98.155 11.3783 98.1686 11.5516 98.1957 11.7355C98.2259 11.9194 98.2696 12.0777 98.3269 12.2103V12.2827H97.4541C97.4119 12.1862 97.3788 12.0581 97.3547 11.8983C97.3305 11.7355 97.3185 11.5848 97.3185 11.4461ZM97.4632 9.3163L97.4722 9.90414H96.6266C96.3885 9.90414 96.176 9.92374 95.989 9.96293C95.8021 9.9991 95.6454 10.0549 95.5188 10.1302C95.3922 10.2056 95.2957 10.3006 95.2294 10.4151C95.1631 10.5267 95.1299 10.6578 95.1299 10.8085C95.1299 10.9623 95.1646 11.1024 95.2339 11.2291C95.3032 11.3557 95.4072 11.4567 95.5459 11.532C95.6876 11.6044 95.8609 11.6405 96.0659 11.6405C96.3222 11.6405 96.5483 11.5863 96.7442 11.4778C96.9402 11.3692 97.0954 11.2366 97.21 11.0798C97.3275 10.9231 97.3908 10.7708 97.3999 10.6231L97.7571 11.0256C97.736 11.1522 97.6787 11.2924 97.5853 11.4461C97.4918 11.5998 97.3667 11.7476 97.21 11.8892C97.0562 12.0279 96.8723 12.144 96.6583 12.2374C96.4473 12.3279 96.2091 12.3731 95.9438 12.3731C95.6122 12.3731 95.3213 12.3083 95.0711 12.1786C94.8239 12.049 94.631 11.8757 94.4923 11.6586C94.3566 11.4386 94.2888 11.1929 94.2888 10.9216C94.2888 10.6593 94.3401 10.4287 94.4426 10.2297C94.5451 10.0277 94.6928 9.86043 94.8857 9.72779C95.0786 9.59213 95.3108 9.48963 95.5821 9.4203C95.8534 9.35096 96.1564 9.3163 96.491 9.3163H97.4632Z" fill="white"/>
<path d="M104.852 11.3331V5.33704H105.693V12.2827H104.924L104.852 11.3331ZM101.56 9.89058V9.79562C101.56 9.42181 101.605 9.08266 101.696 8.77819C101.789 8.4707 101.92 8.20693 102.089 7.98686C102.261 7.7668 102.464 7.59798 102.7 7.48041C102.938 7.35983 103.203 7.29954 103.495 7.29954C103.803 7.29954 104.071 7.3538 104.3 7.46232C104.532 7.56783 104.728 7.72309 104.888 7.92808C105.051 8.13005 105.179 8.37424 105.272 8.66062C105.366 8.94701 105.431 9.27108 105.467 9.63283V10.0488C105.434 10.4076 105.369 10.7301 105.272 11.0165C105.179 11.3029 105.051 11.5471 104.888 11.7491C104.728 11.951 104.532 12.1063 104.3 12.2148C104.068 12.3203 103.797 12.3731 103.486 12.3731C103.2 12.3731 102.938 12.3113 102.7 12.1877C102.464 12.0641 102.261 11.8908 102.089 11.6677C101.92 11.4446 101.789 11.1823 101.696 10.8809C101.605 10.5764 101.56 10.2463 101.56 9.89058ZM102.401 9.79562V9.89058C102.401 10.1348 102.425 10.3639 102.473 10.5779C102.525 10.7919 102.603 10.9803 102.709 11.1431C102.814 11.3059 102.948 11.434 103.111 11.5275C103.274 11.6179 103.468 11.6632 103.694 11.6632C103.972 11.6632 104.199 11.6044 104.377 11.4868C104.558 11.3692 104.703 11.214 104.811 11.021C104.92 10.8281 105.004 10.6186 105.064 10.3925V9.30273C105.028 9.13693 104.976 8.97715 104.906 8.82341C104.84 8.66665 104.752 8.52798 104.644 8.4074C104.538 8.2838 104.407 8.18582 104.251 8.11347C104.097 8.04112 103.914 8.00495 103.703 8.00495C103.474 8.00495 103.277 8.05318 103.111 8.14965C102.948 8.2431 102.814 8.37273 102.709 8.53853C102.603 8.70132 102.525 8.89124 102.473 9.10829C102.425 9.32232 102.401 9.55143 102.401 9.79562Z" fill="white"/>
<path d="M109.026 12.3731C108.685 12.3731 108.376 12.3158 108.099 12.2013C107.824 12.0837 107.588 11.9194 107.389 11.7084C107.193 11.4974 107.042 11.2471 106.937 10.9577C106.831 10.6683 106.778 10.3518 106.778 10.0081V9.81822C106.778 9.4203 106.837 9.06608 106.955 8.75558C107.072 8.44206 107.232 8.17678 107.434 7.95973C107.636 7.74268 107.865 7.57838 108.121 7.46684C108.378 7.35531 108.643 7.29954 108.917 7.29954C109.267 7.29954 109.568 7.35983 109.821 7.48041C110.078 7.60099 110.287 7.76981 110.45 7.98686C110.613 8.2009 110.733 8.45412 110.812 8.74654C110.89 9.03594 110.929 9.35247 110.929 9.69613V10.0715H107.276V9.38865H110.093V9.32534C110.081 9.10829 110.036 8.89727 109.957 8.69228C109.882 8.48728 109.761 8.31847 109.595 8.18582C109.43 8.05318 109.204 7.98686 108.917 7.98686C108.727 7.98686 108.552 8.02756 108.393 8.10895C108.233 8.18733 108.096 8.3049 107.981 8.46166C107.867 8.61842 107.778 8.80984 107.714 9.03594C107.651 9.26203 107.619 9.5228 107.619 9.81822V10.0081C107.619 10.2403 107.651 10.4588 107.714 10.6638C107.781 10.8658 107.876 11.0437 107.999 11.1974C108.126 11.3511 108.278 11.4717 108.456 11.5592C108.637 11.6466 108.842 11.6903 109.071 11.6903C109.366 11.6903 109.617 11.63 109.821 11.5094C110.026 11.3888 110.206 11.2275 110.36 11.0256L110.866 11.428C110.761 11.5878 110.626 11.74 110.464 11.8847C110.301 12.0294 110.1 12.147 109.862 12.2374C109.627 12.3279 109.348 12.3731 109.026 12.3731Z" fill="white"/>
<path d="M116.582 5.69879V12.2827H115.723V5.69879H116.582ZM118.698 5.69879V6.41325H113.611V5.69879H118.698Z" fill="white"/>
<path d="M122.107 11.1522V7.38997H122.949V12.2827H122.148L122.107 11.1522ZM122.266 10.1212L122.614 10.1121C122.614 10.4377 122.579 10.7392 122.51 11.0165C122.444 11.2909 122.335 11.529 122.184 11.731C122.034 11.933 121.836 12.0912 121.592 12.2058C121.348 12.3173 121.051 12.3731 120.701 12.3731C120.463 12.3731 120.244 12.3384 120.045 12.2691C119.85 12.1998 119.681 12.0927 119.539 11.948C119.397 11.8033 119.287 11.6149 119.209 11.3828C119.134 11.1507 119.096 10.8718 119.096 10.5462V7.38997H119.932V10.5553C119.932 10.7754 119.957 10.9577 120.005 11.1024C120.056 11.2441 120.124 11.3572 120.208 11.4416C120.296 11.523 120.392 11.5803 120.498 11.6134C120.606 11.6466 120.718 11.6632 120.832 11.6632C121.188 11.6632 121.47 11.5953 121.678 11.4597C121.886 11.321 122.035 11.1356 122.126 10.9035C122.219 10.6683 122.266 10.4076 122.266 10.1212Z" fill="white"/>
<path d="M125.06 8.15869V12.2827H124.224V7.38997H125.038L125.06 8.15869ZM126.589 7.36284L126.584 8.14061C126.515 8.12553 126.448 8.11649 126.385 8.11347C126.325 8.10745 126.256 8.10443 126.177 8.10443C125.984 8.10443 125.814 8.13458 125.666 8.19487C125.518 8.25516 125.393 8.33957 125.291 8.44809C125.188 8.55662 125.107 8.68625 125.047 8.83698C124.989 8.98469 124.952 9.14748 124.934 9.32534L124.698 9.461C124.698 9.16557 124.727 8.88822 124.784 8.62897C124.845 8.36971 124.937 8.14061 125.06 7.94164C125.184 7.73967 125.341 7.58291 125.531 7.47137C125.723 7.35681 125.953 7.29954 126.218 7.29954C126.278 7.29954 126.347 7.30707 126.426 7.32214C126.504 7.3342 126.558 7.34777 126.589 7.36284Z" fill="white"/>
<path d="M128.271 7.38997V12.2827H127.43V7.38997H128.271ZM127.366 6.09219C127.366 5.95654 127.407 5.84198 127.488 5.74853C127.573 5.65508 127.697 5.60835 127.859 5.60835C128.019 5.60835 128.141 5.65508 128.226 5.74853C128.313 5.84198 128.357 5.95654 128.357 6.09219C128.357 6.22182 128.313 6.33336 128.226 6.42681C128.141 6.51725 128.019 6.56247 127.859 6.56247C127.697 6.56247 127.573 6.51725 127.488 6.42681C127.407 6.33336 127.366 6.22182 127.366 6.09219Z" fill="white"/>
<path d="M132.463 10.9849C132.463 10.8643 132.435 10.7527 132.381 10.6503C132.33 10.5447 132.223 10.4498 132.06 10.3654C131.9 10.2779 131.659 10.2026 131.337 10.1393C131.065 10.082 130.82 10.0142 130.6 9.93579C130.383 9.85741 130.197 9.76245 130.043 9.65092C129.893 9.53938 129.777 9.40824 129.695 9.25751C129.614 9.10678 129.573 8.93043 129.573 8.72845C129.573 8.53552 129.615 8.35313 129.7 8.1813C129.787 8.00947 129.909 7.85723 130.066 7.72459C130.226 7.59195 130.417 7.48795 130.64 7.41258C130.863 7.33722 131.112 7.29954 131.386 7.29954C131.778 7.29954 132.113 7.36887 132.39 7.50754C132.668 7.64621 132.88 7.83161 133.028 8.06373C133.176 8.29284 133.249 8.54758 133.249 8.82793H132.413C132.413 8.69228 132.372 8.56114 132.291 8.43453C132.212 8.3049 132.096 8.19788 131.943 8.11347C131.792 8.02907 131.606 7.98686 131.386 7.98686C131.154 7.98686 130.966 8.02304 130.821 8.09539C130.679 8.16472 130.575 8.25365 130.509 8.36218C130.446 8.4707 130.414 8.58526 130.414 8.70584C130.414 8.79628 130.429 8.87767 130.459 8.95002C130.493 9.01936 130.55 9.08417 130.631 9.14446C130.713 9.20174 130.827 9.256 130.975 9.30725C131.123 9.3585 131.311 9.40975 131.54 9.461C131.941 9.55143 132.271 9.65996 132.53 9.78657C132.79 9.91318 132.983 10.0684 133.109 10.2523C133.236 10.4362 133.299 10.6593 133.299 10.9216C133.299 11.1356 133.254 11.3315 133.163 11.5094C133.076 11.6873 132.948 11.841 132.779 11.9706C132.613 12.0973 132.414 12.1967 132.182 12.2691C131.953 12.3384 131.695 12.3731 131.409 12.3731C130.978 12.3731 130.613 12.2962 130.315 12.1425C130.016 11.9887 129.79 11.7898 129.636 11.5456C129.483 11.3014 129.406 11.0437 129.406 10.7723H130.247C130.259 11.0015 130.325 11.1838 130.446 11.3195C130.566 11.4521 130.714 11.5471 130.889 11.6044C131.064 11.6586 131.237 11.6858 131.409 11.6858C131.638 11.6858 131.83 11.6556 131.983 11.5953C132.14 11.535 132.259 11.4521 132.34 11.3466C132.422 11.2411 132.463 11.1205 132.463 10.9849Z" fill="white"/>
<path d="M135.23 8.36218V12.2827H134.389V7.38997H135.185L135.23 8.36218ZM135.058 9.65092L134.669 9.63735C134.672 9.30273 134.716 8.99373 134.8 8.71036C134.885 8.42398 135.01 8.17527 135.176 7.96425C135.341 7.75323 135.548 7.59044 135.795 7.47589C136.042 7.35832 136.329 7.29954 136.654 7.29954C136.883 7.29954 137.094 7.3327 137.287 7.39902C137.48 7.46232 137.648 7.56331 137.789 7.70198C137.931 7.84065 138.041 8.01851 138.119 8.23557C138.198 8.45262 138.237 8.71489 138.237 9.02237V12.2827H137.4V9.06307C137.4 8.80683 137.357 8.60184 137.269 8.44809C137.185 8.29435 137.064 8.18281 136.908 8.11347C136.751 8.04112 136.567 8.00495 136.356 8.00495C136.109 8.00495 135.902 8.04866 135.736 8.13608C135.571 8.22351 135.438 8.34409 135.338 8.49783C135.239 8.65158 135.167 8.82793 135.121 9.0269C135.079 9.22284 135.058 9.43085 135.058 9.65092ZM138.228 9.18968L137.667 9.36151C137.67 9.09322 137.714 8.83547 137.798 8.58827C137.886 8.34108 138.011 8.12101 138.174 7.92808C138.34 7.73514 138.543 7.58291 138.784 7.47137C139.025 7.35681 139.301 7.29954 139.612 7.29954C139.874 7.29954 140.106 7.3342 140.308 7.40354C140.513 7.47287 140.685 7.57989 140.824 7.72459C140.965 7.86628 141.072 8.04866 141.145 8.27174C141.217 8.49482 141.253 8.7601 141.253 9.06759V12.2827H140.412V9.05855C140.412 8.78422 140.368 8.57169 140.281 8.42096C140.196 8.26722 140.076 8.1602 139.919 8.09991C139.765 8.0366 139.582 8.00495 139.367 8.00495C139.184 8.00495 139.021 8.0366 138.879 8.09991C138.737 8.16322 138.618 8.25064 138.522 8.36218C138.425 8.4707 138.352 8.59581 138.3 8.73749C138.252 8.87918 138.228 9.02991 138.228 9.18968Z" fill="white"/>
<path d="M142.298 9.89058V9.78657C142.298 9.43386 142.349 9.10678 142.451 8.80532C142.554 8.50085 142.702 8.23707 142.895 8.01399C143.087 7.7879 143.321 7.61305 143.595 7.48945C143.87 7.36284 144.177 7.29954 144.518 7.29954C144.862 7.29954 145.171 7.36284 145.445 7.48945C145.722 7.61305 145.957 7.7879 146.15 8.01399C146.346 8.23707 146.495 8.50085 146.598 8.80532C146.7 9.10678 146.752 9.43386 146.752 9.78657V9.89058C146.752 10.2433 146.7 10.5704 146.598 10.8718C146.495 11.1733 146.346 11.4371 146.15 11.6632C145.957 11.8862 145.724 12.0611 145.449 12.1877C145.178 12.3113 144.871 12.3731 144.527 12.3731C144.183 12.3731 143.874 12.3113 143.6 12.1877C143.326 12.0611 143.091 11.8862 142.895 11.6632C142.702 11.4371 142.554 11.1733 142.451 10.8718C142.349 10.5704 142.298 10.2433 142.298 9.89058ZM143.134 9.78657V9.89058C143.134 10.1348 143.163 10.3654 143.22 10.5824C143.277 10.7965 143.363 10.9864 143.478 11.1522C143.595 11.318 143.742 11.4491 143.916 11.5456C144.091 11.639 144.295 11.6858 144.527 11.6858C144.756 11.6858 144.957 11.639 145.128 11.5456C145.303 11.4491 145.448 11.318 145.562 11.1522C145.677 10.9864 145.763 10.7965 145.82 10.5824C145.881 10.3654 145.911 10.1348 145.911 9.89058V9.78657C145.911 9.5454 145.881 9.3178 145.82 9.10377C145.763 8.88672 145.676 8.69529 145.558 8.52949C145.443 8.36067 145.299 8.22803 145.124 8.13156C144.952 8.0351 144.75 7.98686 144.518 7.98686C144.289 7.98686 144.087 8.0351 143.912 8.13156C143.74 8.22803 143.595 8.36067 143.478 8.52949C143.363 8.69529 143.277 8.88672 143.22 9.10377C143.163 9.3178 143.134 9.5454 143.134 9.78657Z" fill="white"/>
<path d="M151.473 11.7762L152.834 7.38997H153.729L151.766 13.0378C151.721 13.1584 151.661 13.288 151.586 13.4267C151.513 13.5684 151.42 13.7025 151.305 13.8291C151.191 13.9557 151.052 14.0582 150.889 14.1366C150.729 14.218 150.538 14.2587 150.315 14.2587C150.249 14.2587 150.164 14.2497 150.062 14.2316C149.959 14.2135 149.887 14.1984 149.845 14.1864L149.84 13.5081C149.864 13.5111 149.902 13.5141 149.953 13.5171C150.007 13.5232 150.045 13.5262 150.066 13.5262C150.256 13.5262 150.417 13.5005 150.55 13.4493C150.683 13.4011 150.794 13.3182 150.885 13.2006C150.978 13.086 151.058 12.9278 151.124 12.7258L151.473 11.7762ZM150.473 7.38997L151.744 11.1884L151.961 12.0701L151.36 12.3776L149.56 7.38997H150.473Z" fill="white"/>
<path d="M71.3493 20.9933H72.2175C72.1723 21.4093 72.0532 21.7816 71.8603 22.1102C71.6673 22.4388 71.3945 22.6996 71.0418 22.8925C70.6891 23.0824 70.249 23.1774 69.7214 23.1774C69.3356 23.1774 68.9844 23.105 68.6678 22.9603C68.3543 22.8156 68.0845 22.6106 67.8584 22.3454C67.6323 22.0771 67.4575 21.756 67.3339 21.3822C67.2133 21.0054 67.153 20.5863 67.153 20.1251V19.4694C67.153 19.0082 67.2133 18.5907 67.3339 18.2169C67.4575 17.84 67.6338 17.5175 67.8629 17.2492C68.0951 16.9809 68.3739 16.7744 68.6995 16.6297C69.0251 16.485 69.3913 16.4126 69.7983 16.4126C70.2957 16.4126 70.7162 16.5061 71.0599 16.693C71.4036 16.8799 71.6704 17.1392 71.8603 17.4708C72.0532 17.7994 72.1723 18.1807 72.2175 18.6148H71.3493C71.3071 18.3073 71.2287 18.0435 71.1142 17.8235C70.9996 17.6004 70.8368 17.4286 70.6258 17.308C70.4148 17.1874 70.1389 17.1271 69.7983 17.1271C69.5059 17.1271 69.2481 17.1829 69.0251 17.2944C68.805 17.4059 68.6196 17.5642 68.4689 17.7692C68.3211 17.9742 68.2096 18.2199 68.1342 18.5063C68.0589 18.7927 68.0212 19.1107 68.0212 19.4604V20.1251C68.0212 20.4477 68.0544 20.7506 68.1207 21.034C68.19 21.3174 68.294 21.5661 68.4327 21.7801C68.5714 21.9942 68.7477 22.163 68.9617 22.2866C69.1758 22.4072 69.429 22.4674 69.7214 22.4674C70.0922 22.4674 70.3876 22.4087 70.6077 22.2911C70.8278 22.1735 70.9936 22.0047 71.1051 21.7846C71.2197 21.5646 71.3011 21.3008 71.3493 20.9933Z" fill="white"/>
<path d="M73.0586 20.6949V20.5909C73.0586 20.2382 73.1098 19.9111 73.2123 19.6096C73.3148 19.3051 73.4625 19.0414 73.6555 18.8183C73.8484 18.5922 74.082 18.4173 74.3564 18.2937C74.6307 18.1671 74.9382 18.1038 75.2788 18.1038C75.6225 18.1038 75.9315 18.1671 76.2058 18.2937C76.4831 18.4173 76.7183 18.5922 76.9112 18.8183C77.1072 19.0414 77.2564 19.3051 77.3589 19.6096C77.4614 19.9111 77.5126 20.2382 77.5126 20.5909V20.6949C77.5126 21.0476 77.4614 21.3747 77.3589 21.6761C77.2564 21.9776 77.1072 22.2413 76.9112 22.4674C76.7183 22.6905 76.4847 22.8654 76.2103 22.992C75.939 23.1156 75.6315 23.1774 75.2879 23.1774C74.9442 23.1774 74.6352 23.1156 74.3609 22.992C74.0865 22.8654 73.8514 22.6905 73.6555 22.4674C73.4625 22.2413 73.3148 21.9776 73.2123 21.6761C73.1098 21.3747 73.0586 21.0476 73.0586 20.6949ZM73.8951 20.5909V20.6949C73.8951 20.939 73.9238 21.1697 73.981 21.3867C74.0383 21.6007 74.1242 21.7907 74.2388 21.9565C74.3564 22.1223 74.5026 22.2534 74.6774 22.3499C74.8523 22.4433 75.0557 22.4901 75.2879 22.4901C75.517 22.4901 75.7174 22.4433 75.8893 22.3499C76.0641 22.2534 76.2088 22.1223 76.3234 21.9565C76.4379 21.7907 76.5238 21.6007 76.5811 21.3867C76.6414 21.1697 76.6716 20.939 76.6716 20.6949V20.5909C76.6716 20.3497 76.6414 20.1221 76.5811 19.9081C76.5238 19.691 76.4364 19.4996 76.3189 19.3338C76.2043 19.165 76.0596 19.0323 75.8848 18.9359C75.7129 18.8394 75.5109 18.7912 75.2788 18.7912C75.0497 18.7912 74.8477 18.8394 74.6729 18.9359C74.5011 19.0323 74.3564 19.165 74.2388 19.3338C74.1242 19.4996 74.0383 19.691 73.981 19.9081C73.9238 20.1221 73.8951 20.3497 73.8951 20.5909Z" fill="white"/>
<path d="M79.3937 19.1665V23.0869H78.5527V18.1943H79.3485L79.3937 19.1665ZM79.2219 20.4552L78.833 20.4416C78.836 20.107 78.8797 19.798 78.9642 19.5147C79.0486 19.2283 79.1737 18.9796 79.3395 18.7685C79.5053 18.5575 79.7118 18.3947 79.959 18.2802C80.2062 18.1626 80.4926 18.1038 80.8181 18.1038C81.0472 18.1038 81.2583 18.137 81.4512 18.2033C81.6441 18.2666 81.8114 18.3676 81.9531 18.5063C82.0948 18.6449 82.2048 18.8228 82.2832 19.0399C82.3616 19.2569 82.4008 19.5192 82.4008 19.8267V23.0869H81.5642V19.8674C81.5642 19.6111 81.5205 19.4061 81.4331 19.2524C81.3487 19.0986 81.2281 18.9871 81.0714 18.9178C80.9146 18.8454 80.7307 18.8092 80.5197 18.8092C80.2725 18.8092 80.066 18.8529 79.9002 18.9404C79.7344 19.0278 79.6017 19.1484 79.5023 19.3021C79.4028 19.4559 79.3304 19.6322 79.2852 19.8312C79.243 20.0271 79.2219 20.2351 79.2219 20.4552ZM82.3917 19.994L81.831 20.1658C81.834 19.8975 81.8778 19.6398 81.9622 19.3926C82.0496 19.1454 82.1747 18.9253 82.3375 18.7324C82.5033 18.5394 82.7068 18.3872 82.9479 18.2757C83.1891 18.1611 83.4649 18.1038 83.7754 18.1038C84.0377 18.1038 84.2698 18.1385 84.4718 18.2078C84.6768 18.2772 84.8486 18.3842 84.9873 18.5289C85.129 18.6706 85.236 18.8529 85.3084 19.076C85.3807 19.2991 85.4169 19.5644 85.4169 19.8719V23.0869H84.5758V19.8628C84.5758 19.5885 84.5321 19.376 84.4447 19.2253C84.3603 19.0715 84.2397 18.9645 84.0829 18.9042C83.9292 18.8409 83.7453 18.8092 83.5313 18.8092C83.3474 18.8092 83.1846 18.8409 83.0429 18.9042C82.9012 18.9675 82.7821 19.0549 82.6857 19.1665C82.5892 19.275 82.5153 19.4001 82.4641 19.5418C82.4159 19.6835 82.3917 19.8342 82.3917 19.994Z" fill="white"/>
<path d="M88.7133 23.1774C88.3727 23.1774 88.0637 23.1201 87.7864 23.0055C87.512 22.888 87.2754 22.7237 87.0764 22.5127C86.8805 22.3016 86.7297 22.0514 86.6242 21.762C86.5187 21.4726 86.466 21.1561 86.466 20.8124V20.6225C86.466 20.2246 86.5247 19.8704 86.6423 19.5599C86.7599 19.2464 86.9197 18.9811 87.1216 18.764C87.3236 18.547 87.5527 18.3827 87.809 18.2711C88.0652 18.1596 88.3305 18.1038 88.6048 18.1038C88.9545 18.1038 89.256 18.1641 89.5092 18.2847C89.7654 18.4053 89.9749 18.5741 90.1377 18.7912C90.3005 19.0052 90.4211 19.2584 90.4995 19.5508C90.5779 19.8402 90.6171 20.1568 90.6171 20.5004V20.8757H86.9634V20.1929H89.7805V20.1296C89.7684 19.9126 89.7232 19.7016 89.6448 19.4966C89.5695 19.2916 89.4489 19.1228 89.2831 18.9901C89.1173 18.8575 88.8912 18.7912 88.6048 18.7912C88.4149 18.7912 88.24 18.8318 88.0803 18.9132C87.9205 18.9916 87.7833 19.1092 87.6688 19.2659C87.5542 19.4227 87.4653 19.6141 87.402 19.8402C87.3387 20.0663 87.307 20.3271 87.307 20.6225V20.8124C87.307 21.0446 87.3387 21.2631 87.402 21.4681C87.4683 21.6701 87.5633 21.8479 87.6869 22.0017C87.8135 22.1554 87.9657 22.276 88.1436 22.3634C88.3245 22.4509 88.5294 22.4946 88.7586 22.4946C89.054 22.4946 89.3042 22.4343 89.5092 22.3137C89.7142 22.1931 89.8935 22.0318 90.0473 21.8299L90.5537 22.2323C90.4482 22.3921 90.3141 22.5443 90.1513 22.689C89.9885 22.8337 89.788 22.9513 89.5499 23.0417C89.3147 23.1322 89.0359 23.1774 88.7133 23.1774Z" fill="white"/>
<path d="M92.4303 18.963V23.0869H91.5938V18.1943H92.4077L92.4303 18.963ZM93.9587 18.1671L93.9542 18.9449C93.8849 18.9298 93.8185 18.9208 93.7552 18.9178C93.6949 18.9117 93.6256 18.9087 93.5472 18.9087C93.3543 18.9087 93.184 18.9389 93.0363 18.9992C92.8885 19.0594 92.7634 19.1439 92.6609 19.2524C92.5584 19.3609 92.4771 19.4905 92.4168 19.6413C92.3595 19.789 92.3218 19.9518 92.3037 20.1296L92.0686 20.2653C92.0686 19.9699 92.0972 19.6925 92.1545 19.4333C92.2148 19.174 92.3067 18.9449 92.4303 18.7459C92.5539 18.544 92.7107 18.3872 92.9006 18.2757C93.0935 18.1611 93.3226 18.1038 93.5879 18.1038C93.6482 18.1038 93.7176 18.1114 93.7959 18.1264C93.8743 18.1385 93.9286 18.1521 93.9587 18.1671Z" fill="white"/>
<path d="M96.5995 22.4901C96.7985 22.4901 96.9824 22.4494 97.1512 22.368C97.32 22.2866 97.4587 22.175 97.5672 22.0333C97.6757 21.8886 97.7375 21.7243 97.7526 21.5405H98.5484C98.5334 21.8299 98.4354 22.0997 98.2545 22.3499C98.0767 22.5971 97.843 22.7975 97.5536 22.9513C97.2642 23.102 96.9462 23.1774 96.5995 23.1774C96.2317 23.1774 95.9107 23.1126 95.6363 22.9829C95.365 22.8533 95.1389 22.6754 94.9581 22.4494C94.7802 22.2233 94.646 21.964 94.5556 21.6716C94.4682 21.3762 94.4245 21.0642 94.4245 20.7356V20.5456C94.4245 20.2171 94.4682 19.9065 94.5556 19.6141C94.646 19.3187 94.7802 19.0579 94.9581 18.8318C95.1389 18.6058 95.365 18.4279 95.6363 18.2983C95.9107 18.1686 96.2317 18.1038 96.5995 18.1038C96.9824 18.1038 97.317 18.1822 97.6034 18.339C97.8897 18.4927 98.1143 18.7037 98.2771 18.972C98.4429 19.2373 98.5334 19.5388 98.5484 19.8764H97.7526C97.7375 19.6744 97.6802 19.492 97.5808 19.3293C97.4843 19.1665 97.3516 19.0368 97.1828 18.9404C97.017 18.8409 96.8226 18.7912 96.5995 18.7912C96.3433 18.7912 96.1277 18.8424 95.9529 18.9449C95.781 19.0444 95.6439 19.18 95.5414 19.3519C95.4419 19.5207 95.3696 19.7091 95.3243 19.9171C95.2821 20.1221 95.261 20.3316 95.261 20.5456V20.7356C95.261 20.9496 95.2821 21.1606 95.3243 21.3686C95.3665 21.5766 95.4374 21.765 95.5369 21.9339C95.6394 22.1027 95.7765 22.2383 95.9484 22.3408C96.1232 22.4403 96.3402 22.4901 96.5995 22.4901Z" fill="white"/>
<path d="M100.398 18.1943V23.0869H99.5568V18.1943H100.398ZM99.4935 16.8965C99.4935 16.7608 99.5342 16.6463 99.6156 16.5528C99.7 16.4594 99.8236 16.4126 99.9864 16.4126C100.146 16.4126 100.268 16.4594 100.353 16.5528C100.44 16.6463 100.484 16.7608 100.484 16.8965C100.484 17.0261 100.44 17.1376 100.353 17.2311C100.268 17.3215 100.146 17.3668 99.9864 17.3668C99.8236 17.3668 99.7 17.3215 99.6156 17.2311C99.5342 17.1376 99.4935 17.0261 99.4935 16.8965Z" fill="white"/>
<path d="M101.519 20.6949V20.5909C101.519 20.2382 101.571 19.9111 101.673 19.6096C101.776 19.3051 101.923 19.0414 102.116 18.8183C102.309 18.5922 102.543 18.4173 102.817 18.2937C103.091 18.1671 103.399 18.1038 103.74 18.1038C104.083 18.1038 104.392 18.1671 104.667 18.2937C104.944 18.4173 105.179 18.5922 105.372 18.8183C105.568 19.0414 105.717 19.3051 105.82 19.6096C105.922 19.9111 105.973 20.2382 105.973 20.5909V20.6949C105.973 21.0476 105.922 21.3747 105.82 21.6761C105.717 21.9776 105.568 22.2413 105.372 22.4674C105.179 22.6905 104.945 22.8654 104.671 22.992C104.4 23.1156 104.092 23.1774 103.749 23.1774C103.405 23.1774 103.096 23.1156 102.822 22.992C102.547 22.8654 102.312 22.6905 102.116 22.4674C101.923 22.2413 101.776 21.9776 101.673 21.6761C101.571 21.3747 101.519 21.0476 101.519 20.6949ZM102.356 20.5909V20.6949C102.356 20.939 102.385 21.1697 102.442 21.3867C102.499 21.6007 102.585 21.7907 102.7 21.9565C102.817 22.1223 102.963 22.2534 103.138 22.3499C103.313 22.4433 103.516 22.4901 103.749 22.4901C103.978 22.4901 104.178 22.4433 104.35 22.3499C104.525 22.2534 104.67 22.1223 104.784 21.9565C104.899 21.7907 104.985 21.6007 105.042 21.3867C105.102 21.1697 105.132 20.939 105.132 20.6949V20.5909C105.132 20.3497 105.102 20.1221 105.042 19.9081C104.985 19.691 104.897 19.4996 104.78 19.3338C104.665 19.165 104.52 19.0323 104.345 18.9359C104.174 18.8394 103.972 18.7912 103.74 18.7912C103.51 18.7912 103.308 18.8394 103.134 18.9359C102.962 19.0323 102.817 19.165 102.7 19.3338C102.585 19.4996 102.499 19.691 102.442 19.9081C102.385 20.1221 102.356 20.3497 102.356 20.5909Z" fill="white"/>
<path d="M112.403 22.1373V16.1413H113.245V23.0869H112.476L112.403 22.1373ZM109.112 20.6949V20.5999C109.112 20.2261 109.157 19.887 109.247 19.5825C109.341 19.275 109.472 19.0112 109.641 18.7912C109.812 18.5711 110.016 18.4023 110.251 18.2847C110.489 18.1641 110.755 18.1038 111.047 18.1038C111.354 18.1038 111.623 18.1581 111.852 18.2666C112.084 18.3721 112.28 18.5274 112.44 18.7324C112.602 18.9343 112.731 19.1785 112.824 19.4649C112.917 19.7513 112.982 20.0754 113.018 20.4371V20.8531C112.985 21.2119 112.92 21.5344 112.824 21.8208C112.731 22.1072 112.602 22.3514 112.44 22.5534C112.28 22.7553 112.084 22.9106 111.852 23.0191C111.62 23.1246 111.348 23.1774 111.038 23.1774C110.751 23.1774 110.489 23.1156 110.251 22.992C110.016 22.8684 109.812 22.695 109.641 22.472C109.472 22.2489 109.341 21.9866 109.247 21.6852C109.157 21.3807 109.112 21.0506 109.112 20.6949ZM109.953 20.5999V20.6949C109.953 20.939 109.977 21.1682 110.025 21.3822C110.076 21.5962 110.155 21.7846 110.26 21.9474C110.366 22.1102 110.5 22.2383 110.663 22.3318C110.825 22.4222 111.02 22.4674 111.246 22.4674C111.523 22.4674 111.751 22.4087 111.929 22.2911C112.11 22.1735 112.254 22.0183 112.363 21.8253C112.471 21.6324 112.556 21.4229 112.616 21.1968V20.107C112.58 19.9412 112.527 19.7814 112.458 19.6277C112.391 19.4709 112.304 19.3323 112.195 19.2117C112.09 19.0881 111.959 18.9901 111.802 18.9178C111.648 18.8454 111.466 18.8092 111.255 18.8092C111.026 18.8092 110.828 18.8575 110.663 18.9539C110.5 19.0474 110.366 19.177 110.26 19.3428C110.155 19.5056 110.076 19.6955 110.025 19.9126C109.977 20.1266 109.953 20.3557 109.953 20.5999Z" fill="white"/>
<path d="M116.577 23.1774C116.237 23.1774 115.928 23.1201 115.65 23.0055C115.376 22.888 115.139 22.7237 114.94 22.5127C114.744 22.3016 114.594 22.0514 114.488 21.762C114.383 21.4726 114.33 21.1561 114.33 20.8124V20.6225C114.33 20.2246 114.389 19.8704 114.506 19.5599C114.624 19.2464 114.784 18.9811 114.985 18.764C115.187 18.547 115.417 18.3827 115.673 18.2711C115.929 18.1596 116.194 18.1038 116.469 18.1038C116.818 18.1038 117.12 18.1641 117.373 18.2847C117.629 18.4053 117.839 18.5741 118.002 18.7912C118.164 19.0052 118.285 19.2584 118.363 19.5508C118.442 19.8402 118.481 20.1568 118.481 20.5004V20.8757H114.827V20.1929H117.644V20.1296C117.632 19.9126 117.587 19.7016 117.509 19.4966C117.433 19.2916 117.313 19.1228 117.147 18.9901C116.981 18.8575 116.755 18.7912 116.469 18.7912C116.279 18.7912 116.104 18.8318 115.944 18.9132C115.784 18.9916 115.647 19.1092 115.533 19.2659C115.418 19.4227 115.329 19.6141 115.266 19.8402C115.203 20.0663 115.171 20.3271 115.171 20.6225V20.8124C115.171 21.0446 115.203 21.2631 115.266 21.4681C115.332 21.6701 115.427 21.8479 115.551 22.0017C115.677 22.1554 115.83 22.276 116.007 22.3634C116.188 22.4509 116.393 22.4946 116.622 22.4946C116.918 22.4946 117.168 22.4343 117.373 22.3137C117.578 22.1931 117.757 22.0318 117.911 21.8299L118.418 22.2323C118.312 22.3921 118.178 22.5443 118.015 22.689C117.852 22.8337 117.652 22.9513 117.414 23.0417C117.179 23.1322 116.9 23.1774 116.577 23.1774Z" fill="white"/>
<path d="M122.664 16.1413V23.0869H121.823V16.1413H122.664Z" fill="white"/>
<path d="M126.892 22.2504V19.7317C126.892 19.5388 126.852 19.3715 126.774 19.2298C126.699 19.0851 126.584 18.9735 126.43 18.8952C126.277 18.8168 126.087 18.7776 125.861 18.7776C125.65 18.7776 125.464 18.8138 125.304 18.8861C125.148 18.9585 125.024 19.0534 124.934 19.171C124.846 19.2886 124.802 19.4152 124.802 19.5508H123.966C123.966 19.376 124.011 19.2026 124.102 19.0308C124.192 18.859 124.322 18.7037 124.49 18.5651C124.662 18.4234 124.867 18.3118 125.105 18.2304C125.347 18.146 125.615 18.1038 125.91 18.1038C126.266 18.1038 126.58 18.1641 126.851 18.2847C127.125 18.4053 127.339 18.5877 127.493 18.8318C127.65 19.073 127.728 19.376 127.728 19.7407V22.0198C127.728 22.1826 127.742 22.3559 127.769 22.5398C127.799 22.7237 127.843 22.8819 127.9 23.0146V23.0869H127.027C126.985 22.9905 126.952 22.8624 126.928 22.7026C126.904 22.5398 126.892 22.3891 126.892 22.2504ZM127.036 20.1206L127.045 20.7084H126.2C125.962 20.7084 125.749 20.728 125.562 20.7672C125.375 20.8034 125.219 20.8592 125.092 20.9345C124.965 21.0099 124.869 21.1048 124.802 21.2194C124.736 21.3309 124.703 21.4621 124.703 21.6128C124.703 21.7666 124.738 21.9067 124.807 22.0333C124.876 22.16 124.98 22.2609 125.119 22.3363C125.261 22.4087 125.434 22.4448 125.639 22.4448C125.895 22.4448 126.121 22.3906 126.317 22.282C126.513 22.1735 126.669 22.0409 126.783 21.8841C126.901 21.7274 126.964 21.5751 126.973 21.4274L127.33 21.8299C127.309 21.9565 127.252 22.0966 127.158 22.2504C127.065 22.4041 126.94 22.5519 126.783 22.6935C126.629 22.8322 126.445 22.9483 126.231 23.0417C126.02 23.1322 125.782 23.1774 125.517 23.1774C125.185 23.1774 124.894 23.1126 124.644 22.9829C124.397 22.8533 124.204 22.68 124.065 22.4629C123.93 22.2429 123.862 21.9972 123.862 21.7259C123.862 21.4636 123.913 21.233 124.016 21.034C124.118 20.832 124.266 20.6647 124.459 20.5321C124.652 20.3964 124.884 20.2939 125.155 20.2246C125.427 20.1553 125.729 20.1206 126.064 20.1206H127.036Z" fill="white"/>
<path d="M133.896 20.5049H132.137V19.795H133.896C134.237 19.795 134.512 19.7407 134.724 19.6322C134.935 19.5237 135.088 19.373 135.185 19.18C135.284 18.9871 135.334 18.767 135.334 18.5198C135.334 18.2937 135.284 18.0812 135.185 17.8823C135.088 17.6833 134.935 17.5235 134.724 17.4029C134.512 17.2793 134.237 17.2175 133.896 17.2175H132.34V23.0869H131.468V16.5031H133.896C134.393 16.5031 134.814 16.589 135.158 16.7608C135.501 16.9327 135.762 17.1708 135.94 17.4753C136.118 17.7767 136.207 18.1219 136.207 18.5108C136.207 18.9328 136.118 19.2931 135.94 19.5915C135.762 19.89 135.501 20.1176 135.158 20.2743C134.814 20.4281 134.393 20.5049 133.896 20.5049Z" fill="white"/>
<path d="M138.02 18.963V23.0869H137.183V18.1943H137.997L138.02 18.963ZM139.548 18.1671L139.544 18.9449C139.475 18.9298 139.408 18.9208 139.345 18.9178C139.285 18.9117 139.215 18.9087 139.137 18.9087C138.944 18.9087 138.774 18.9389 138.626 18.9992C138.478 19.0594 138.353 19.1439 138.251 19.2524C138.148 19.3609 138.067 19.4905 138.006 19.6413C137.949 19.789 137.911 19.9518 137.893 20.1296L137.658 20.2653C137.658 19.9699 137.687 19.6925 137.744 19.4333C137.804 19.174 137.896 18.9449 138.02 18.7459C138.144 18.544 138.3 18.3872 138.49 18.2757C138.683 18.1611 138.912 18.1038 139.178 18.1038C139.238 18.1038 139.307 18.1114 139.386 18.1264C139.464 18.1385 139.518 18.1521 139.548 18.1671Z" fill="white"/>
<path d="M140.01 20.6949V20.5909C140.01 20.2382 140.061 19.9111 140.163 19.6096C140.266 19.3051 140.414 19.0414 140.606 18.8183C140.799 18.5922 141.033 18.4173 141.307 18.2937C141.582 18.1671 141.889 18.1038 142.23 18.1038C142.573 18.1038 142.882 18.1671 143.157 18.2937C143.434 18.4173 143.669 18.5922 143.862 18.8183C144.058 19.0414 144.207 19.3051 144.31 19.6096C144.412 19.9111 144.464 20.2382 144.464 20.5909V20.6949C144.464 21.0476 144.412 21.3747 144.31 21.6761C144.207 21.9776 144.058 22.2413 143.862 22.4674C143.669 22.6905 143.436 22.8654 143.161 22.992C142.89 23.1156 142.583 23.1774 142.239 23.1774C141.895 23.1774 141.586 23.1156 141.312 22.992C141.038 22.8654 140.802 22.6905 140.606 22.4674C140.414 22.2413 140.266 21.9776 140.163 21.6761C140.061 21.3747 140.01 21.0476 140.01 20.6949ZM140.846 20.5909V20.6949C140.846 20.939 140.875 21.1697 140.932 21.3867C140.989 21.6007 141.075 21.7907 141.19 21.9565C141.307 22.1223 141.454 22.2534 141.628 22.3499C141.803 22.4433 142.007 22.4901 142.239 22.4901C142.468 22.4901 142.668 22.4433 142.84 22.3499C143.015 22.2534 143.16 22.1223 143.274 21.9565C143.389 21.7907 143.475 21.6007 143.532 21.3867C143.592 21.1697 143.623 20.939 143.623 20.6949V20.5909C143.623 20.3497 143.592 20.1221 143.532 19.9081C143.475 19.691 143.387 19.4996 143.27 19.3338C143.155 19.165 143.011 19.0323 142.836 18.9359C142.664 18.8394 142.462 18.7912 142.23 18.7912C142.001 18.7912 141.799 18.8394 141.624 18.9359C141.452 19.0323 141.307 19.165 141.19 19.3338C141.075 19.4996 140.989 19.691 140.932 19.9081C140.875 20.1221 140.846 20.3497 140.846 20.5909Z" fill="white"/>
<path d="M146.928 22.3318L148.267 18.1943H149.121L147.362 23.0869H146.801L146.928 22.3318ZM145.811 18.1943L147.19 22.3544L147.285 23.0869H146.725L144.952 18.1943H145.811Z" fill="white"/>
<path d="M150.835 18.1943V23.0869H149.994V18.1943H150.835ZM149.931 16.8965C149.931 16.7608 149.971 16.6463 150.053 16.5528C150.137 16.4594 150.261 16.4126 150.423 16.4126C150.583 16.4126 150.705 16.4594 150.79 16.5528C150.877 16.6463 150.921 16.7608 150.921 16.8965C150.921 17.0261 150.877 17.1376 150.79 17.2311C150.705 17.3215 150.583 17.3668 150.423 17.3668C150.261 17.3668 150.137 17.3215 150.053 17.2311C149.971 17.1376 149.931 17.0261 149.931 16.8965Z" fill="white"/>
<path d="M153.015 19.2388V23.0869H152.178V18.1943H152.969L153.015 19.2388ZM152.816 20.4552L152.467 20.4416C152.47 20.107 152.52 19.798 152.617 19.5147C152.713 19.2283 152.849 18.9796 153.024 18.7685C153.198 18.5575 153.406 18.3947 153.648 18.2802C153.892 18.1626 154.162 18.1038 154.457 18.1038C154.698 18.1038 154.915 18.137 155.108 18.2033C155.301 18.2666 155.465 18.3691 155.601 18.5108C155.74 18.6525 155.845 18.8364 155.918 19.0625C155.99 19.2855 156.026 19.5584 156.026 19.8809V23.0869H155.185V19.8719C155.185 19.6156 155.147 19.4106 155.072 19.2569C154.997 19.1001 154.887 18.9871 154.742 18.9178C154.597 18.8454 154.419 18.8092 154.208 18.8092C154 18.8092 153.81 18.8529 153.639 18.9404C153.47 19.0278 153.324 19.1484 153.2 19.3021C153.079 19.4559 152.984 19.6322 152.915 19.8312C152.849 20.0271 152.816 20.2351 152.816 20.4552Z" fill="white"/>
<path d="M159.255 22.4901C159.454 22.4901 159.638 22.4494 159.806 22.368C159.975 22.2866 160.114 22.175 160.222 22.0333C160.331 21.8886 160.393 21.7243 160.408 21.5405H161.204C161.189 21.8299 161.091 22.0997 160.91 22.3499C160.732 22.5971 160.498 22.7975 160.209 22.9513C159.919 23.102 159.601 23.1774 159.255 23.1774C158.887 23.1774 158.566 23.1126 158.292 22.9829C158.02 22.8533 157.794 22.6754 157.613 22.4494C157.435 22.2233 157.301 21.964 157.211 21.6716C157.123 21.3762 157.08 21.0642 157.08 20.7356V20.5456C157.08 20.2171 157.123 19.9065 157.211 19.6141C157.301 19.3187 157.435 19.0579 157.613 18.8318C157.794 18.6058 158.02 18.4279 158.292 18.2983C158.566 18.1686 158.887 18.1038 159.255 18.1038C159.638 18.1038 159.972 18.1822 160.259 18.339C160.545 18.4927 160.77 18.7037 160.932 18.972C161.098 19.2373 161.189 19.5388 161.204 19.8764H160.408C160.393 19.6744 160.335 19.492 160.236 19.3293C160.14 19.1665 160.007 19.0368 159.838 18.9404C159.672 18.8409 159.478 18.7912 159.255 18.7912C158.998 18.7912 158.783 18.8424 158.608 18.9449C158.436 19.0444 158.299 19.18 158.197 19.3519C158.097 19.5207 158.025 19.7091 157.98 19.9171C157.937 20.1221 157.916 20.3316 157.916 20.5456V20.7356C157.916 20.9496 157.937 21.1606 157.98 21.3686C158.022 21.5766 158.093 21.765 158.192 21.9339C158.295 22.1027 158.432 22.2383 158.604 22.3408C158.778 22.4403 158.995 22.4901 159.255 22.4901Z" fill="white"/>
<path d="M163.053 18.1943V23.0869H162.212V18.1943H163.053ZM162.149 16.8965C162.149 16.7608 162.189 16.6463 162.271 16.5528C162.355 16.4594 162.479 16.4126 162.642 16.4126C162.801 16.4126 162.923 16.4594 163.008 16.5528C163.095 16.6463 163.139 16.7608 163.139 16.8965C163.139 17.0261 163.095 17.1376 163.008 17.2311C162.923 17.3215 162.801 17.3668 162.642 17.3668C162.479 17.3668 162.355 17.3215 162.271 17.2311C162.189 17.1376 162.149 17.0261 162.149 16.8965Z" fill="white"/>
<path d="M167.281 22.2504V19.7317C167.281 19.5388 167.242 19.3715 167.164 19.2298C167.088 19.0851 166.974 18.9735 166.82 18.8952C166.666 18.8168 166.476 18.7776 166.25 18.7776C166.039 18.7776 165.854 18.8138 165.694 18.8861C165.537 18.9585 165.414 19.0534 165.323 19.171C165.236 19.2886 165.192 19.4152 165.192 19.5508H164.355C164.355 19.376 164.401 19.2026 164.491 19.0308C164.582 18.859 164.711 18.7037 164.88 18.5651C165.052 18.4234 165.257 18.3118 165.495 18.2304C165.736 18.146 166.004 18.1038 166.3 18.1038C166.656 18.1038 166.969 18.1641 167.24 18.2847C167.515 18.4053 167.729 18.5877 167.882 18.8318C168.039 19.073 168.118 19.376 168.118 19.7407V22.0198C168.118 22.1826 168.131 22.3559 168.158 22.5398C168.188 22.7237 168.232 22.8819 168.289 23.0146V23.0869H167.417C167.375 22.9905 167.341 22.8624 167.317 22.7026C167.293 22.5398 167.281 22.3891 167.281 22.2504ZM167.426 20.1206L167.435 20.7084H166.589C166.351 20.7084 166.139 20.728 165.952 20.7672C165.765 20.8034 165.608 20.8592 165.481 20.9345C165.355 21.0099 165.258 21.1048 165.192 21.2194C165.126 21.3309 165.092 21.4621 165.092 21.6128C165.092 21.7666 165.127 21.9067 165.196 22.0333C165.266 22.16 165.37 22.2609 165.508 22.3363C165.65 22.4087 165.824 22.4448 166.029 22.4448C166.285 22.4448 166.511 22.3906 166.707 22.282C166.903 22.1735 167.058 22.0409 167.173 21.8841C167.29 21.7274 167.353 21.5751 167.362 21.4274L167.72 21.8299C167.699 21.9565 167.641 22.0966 167.548 22.2504C167.454 22.4041 167.329 22.5519 167.173 22.6935C167.019 22.8322 166.835 22.9483 166.621 23.0417C166.41 23.1322 166.172 23.1774 165.906 23.1774C165.575 23.1774 165.284 23.1126 165.034 22.9829C164.787 22.8533 164.594 22.68 164.455 22.4629C164.319 22.2429 164.251 21.9972 164.251 21.7259C164.251 21.4636 164.303 21.233 164.405 21.034C164.508 20.832 164.655 20.6647 164.848 20.5321C165.041 20.3964 165.273 20.2939 165.545 20.2246C165.816 20.1553 166.119 20.1206 166.454 20.1206H167.426Z" fill="white"/>
<path d="M70.3319 32.9416V26.9456H71.1729V33.8912H70.4042L70.3319 32.9416ZM67.0399 31.4992V31.4042C67.0399 31.0304 67.0852 30.6912 67.1756 30.3868C67.2691 30.0793 67.4002 29.8155 67.569 29.5954C67.7408 29.3754 67.9443 29.2066 68.1795 29.089C68.4176 28.9684 68.6829 28.9081 68.9753 28.9081C69.2828 28.9081 69.5511 28.9624 69.7802 29.0709C70.0123 29.1764 70.2083 29.3317 70.3681 29.5367C70.5308 29.7386 70.659 29.9828 70.7524 30.2692C70.8459 30.5556 70.9107 30.8797 70.9469 31.2414V31.6574C70.9137 32.0162 70.8489 32.3387 70.7524 32.6251C70.659 32.9115 70.5308 33.1557 70.3681 33.3576C70.2083 33.5596 70.0123 33.7149 69.7802 33.8234C69.5481 33.9289 69.2768 33.9817 68.9663 33.9817C68.6799 33.9817 68.4176 33.9199 68.1795 33.7963C67.9443 33.6727 67.7408 33.4993 67.569 33.2763C67.4002 33.0532 67.2691 32.7909 67.1756 32.4894C67.0852 32.185 67.0399 31.8549 67.0399 31.4992ZM67.881 31.4042V31.4992C67.881 31.7433 67.9051 31.9724 67.9534 32.1865C68.0046 32.4005 68.083 32.5889 68.1885 32.7517C68.294 32.9145 68.4282 33.0426 68.591 33.1361C68.7537 33.2265 68.9482 33.2717 69.1743 33.2717C69.4516 33.2717 69.6792 33.2129 69.8571 33.0954C70.038 32.9778 70.1827 32.8226 70.2912 32.6296C70.3997 32.4367 70.4841 32.2272 70.5444 32.0011V30.9113C70.5082 30.7455 70.4555 30.5857 70.3861 30.432C70.3198 30.2752 70.2324 30.1366 70.1239 30.016C70.0184 29.8924 69.8872 29.7944 69.7305 29.7221C69.5767 29.6497 69.3943 29.6135 69.1833 29.6135C68.9542 29.6135 68.7568 29.6618 68.591 29.7582C68.4282 29.8517 68.294 29.9813 68.1885 30.1471C68.083 30.3099 68.0046 30.4998 67.9534 30.7169C67.9051 30.9309 67.881 31.16 67.881 31.4042Z" fill="white"/>
<path d="M74.5056 33.9817C74.1649 33.9817 73.8559 33.9244 73.5786 33.8098C73.3043 33.6923 73.0676 33.528 72.8687 33.317C72.6727 33.1059 72.522 32.8557 72.4165 32.5663C72.311 32.2769 72.2582 31.9604 72.2582 31.6167V31.4268C72.2582 31.0289 72.317 30.6747 72.4346 30.3642C72.5521 30.0506 72.7119 29.7854 72.9139 29.5683C73.1159 29.3513 73.345 29.187 73.6012 29.0754C73.8574 28.9639 74.1227 28.9081 74.3971 28.9081C74.7467 28.9081 75.0482 28.9684 75.3014 29.089C75.5577 29.2096 75.7672 29.3784 75.93 29.5954C76.0928 29.8095 76.2133 30.0627 76.2917 30.3551C76.3701 30.6445 76.4093 30.961 76.4093 31.3047V31.68H72.7556V30.9972H75.5727V30.9339C75.5607 30.7169 75.5155 30.5058 75.4371 30.3009C75.3617 30.0959 75.2411 29.927 75.0753 29.7944C74.9095 29.6618 74.6834 29.5954 74.3971 29.5954C74.2071 29.5954 74.0323 29.6361 73.8725 29.7175C73.7127 29.7959 73.5756 29.9135 73.461 30.0702C73.3465 30.227 73.2575 30.4184 73.1942 30.6445C73.1309 30.8706 73.0993 31.1314 73.0993 31.4268V31.6167C73.0993 31.8488 73.1309 32.0674 73.1942 32.2724C73.2606 32.4744 73.3555 32.6522 73.4791 32.806C73.6057 32.9597 73.758 33.0803 73.9358 33.1677C74.1167 33.2552 74.3217 33.2989 74.5508 33.2989C74.8462 33.2989 75.0964 33.2386 75.3014 33.118C75.5064 32.9974 75.6858 32.8361 75.8395 32.6341L76.346 33.0366C76.2405 33.1964 76.1063 33.3486 75.9435 33.4933C75.7807 33.638 75.5803 33.7556 75.3421 33.846C75.107 33.9364 74.8281 33.9817 74.5056 33.9817Z" fill="white"/>
<path d="M82.5726 31.9694V27.3074H83.4408V31.9694C83.4408 32.4035 83.3519 32.7698 83.174 33.0682C82.9962 33.3667 82.7505 33.5943 82.437 33.7511C82.1265 33.9048 81.7692 33.9817 81.3653 33.9817C80.9613 33.9817 80.6026 33.9123 80.2891 33.7737C79.9756 33.635 79.7299 33.424 79.552 33.1406C79.3741 32.8572 79.2852 32.5 79.2852 32.0689H80.1579C80.1579 32.3463 80.2092 32.5739 80.3117 32.7517C80.4142 32.9296 80.5559 33.0607 80.7367 33.1451C80.9206 33.2295 81.1301 33.2717 81.3653 33.2717C81.5944 33.2717 81.7994 33.2235 81.9803 33.127C82.1641 33.0275 82.3088 32.8813 82.4144 32.6884C82.5199 32.4925 82.5726 32.2528 82.5726 31.9694Z" fill="white"/>
<path d="M87.6778 33.0547V30.536C87.6778 30.3431 87.6386 30.1757 87.5603 30.0341C87.4849 29.8894 87.3703 29.7778 87.2166 29.6994C87.0628 29.6211 86.8729 29.5819 86.6468 29.5819C86.4358 29.5819 86.2504 29.618 86.0906 29.6904C85.9339 29.7627 85.8103 29.8577 85.7199 29.9753C85.6324 30.0928 85.5887 30.2195 85.5887 30.3551H84.7522C84.7522 30.1803 84.7974 30.0069 84.8878 29.8351C84.9783 29.6633 85.1079 29.508 85.2767 29.3693C85.4485 29.2277 85.6535 29.1161 85.8917 29.0347C86.1328 28.9503 86.4011 28.9081 86.6966 28.9081C87.0523 28.9081 87.3658 28.9684 87.6371 29.089C87.9115 29.2096 88.1255 29.392 88.2792 29.6361C88.436 29.8773 88.5144 30.1803 88.5144 30.545V32.8241C88.5144 32.9869 88.5279 33.1602 88.5551 33.3441C88.5852 33.528 88.6289 33.6862 88.6862 33.8189V33.8912H87.8135C87.7713 33.7948 87.7381 33.6666 87.714 33.5069C87.6899 33.3441 87.6778 33.1934 87.6778 33.0547ZM87.8225 30.9249L87.8316 31.5127H86.986C86.7478 31.5127 86.5353 31.5323 86.3484 31.5715C86.1615 31.6077 86.0047 31.6634 85.8781 31.7388C85.7515 31.8142 85.655 31.9091 85.5887 32.0237C85.5224 32.1352 85.4892 32.2664 85.4892 32.4171C85.4892 32.5708 85.5239 32.711 85.5932 32.8376C85.6626 32.9642 85.7666 33.0652 85.9052 33.1406C86.0469 33.2129 86.2203 33.2491 86.4253 33.2491C86.6815 33.2491 86.9076 33.1949 87.1035 33.0863C87.2995 32.9778 87.4547 32.8452 87.5693 32.6884C87.6869 32.5316 87.7502 32.3794 87.7592 32.2317L88.1164 32.6341C88.0953 32.7608 88.0381 32.9009 87.9446 33.0547C87.8512 33.2084 87.7261 33.3561 87.5693 33.4978C87.4156 33.6365 87.2317 33.7526 87.0176 33.846C86.8066 33.9364 86.5685 33.9817 86.3032 33.9817C85.9716 33.9817 85.6807 33.9169 85.4304 33.7872C85.1833 33.6576 84.9903 33.4843 84.8516 33.2672C84.716 33.0471 84.6482 32.8015 84.6482 32.5301C84.6482 32.2679 84.6994 32.0373 84.8019 31.8383C84.9044 31.6363 85.0521 31.469 85.2451 31.3364C85.438 31.2007 85.6701 31.0982 85.9414 31.0289C86.2127 30.9595 86.5157 30.9249 86.8503 30.9249H87.8225Z" fill="white"/>
<path d="M92.8237 32.7608V28.9986H93.6648V33.8912H92.8644L92.8237 32.7608ZM92.982 31.7298L93.3302 31.7207C93.3302 32.0463 93.2955 32.3478 93.2262 32.6251C93.1599 32.8994 93.0513 33.1376 92.9006 33.3396C92.7499 33.5415 92.5524 33.6998 92.3082 33.8144C92.0641 33.9259 91.7671 33.9817 91.4174 33.9817C91.1793 33.9817 90.9607 33.947 90.7618 33.8777C90.5658 33.8083 90.397 33.7013 90.2553 33.5566C90.1136 33.4119 90.0036 33.2235 89.9252 32.9914C89.8498 32.7593 89.8122 32.4804 89.8122 32.1548V28.9986H90.6487V32.1639C90.6487 32.3839 90.6728 32.5663 90.7211 32.711C90.7723 32.8527 90.8401 32.9658 90.9245 33.0502C91.012 33.1316 91.1084 33.1888 91.2139 33.222C91.3225 33.2552 91.434 33.2717 91.5486 33.2717C91.9043 33.2717 92.1861 33.2039 92.3942 33.0682C92.6022 32.9296 92.7514 32.7442 92.8418 32.5121C92.9353 32.2769 92.982 32.0162 92.982 31.7298Z" fill="white"/>
<path d="M94.9626 28.9986H95.8037V34.4746C95.8037 34.773 95.7554 35.0262 95.659 35.2342C95.5655 35.4422 95.4238 35.599 95.2339 35.7045C95.047 35.813 94.8103 35.8673 94.524 35.8673C94.4486 35.8673 94.3612 35.8598 94.2617 35.8447C94.1592 35.8296 94.0733 35.8115 94.0039 35.7904L94.0085 35.1167C94.0657 35.1287 94.1306 35.1378 94.2029 35.1438C94.2753 35.1528 94.3386 35.1574 94.3928 35.1574C94.5164 35.1574 94.6204 35.1347 94.7048 35.0895C94.7892 35.0443 94.8525 34.972 94.8948 34.8725C94.94 34.773 94.9626 34.6404 94.9626 34.4746V28.9986ZM94.8767 27.7008C94.8767 27.5651 94.9189 27.4506 95.0033 27.3571C95.0877 27.2637 95.2098 27.2169 95.3696 27.2169C95.5323 27.2169 95.6559 27.2637 95.7403 27.3571C95.8248 27.4506 95.867 27.5651 95.867 27.7008C95.867 27.8304 95.8248 27.9419 95.7403 28.0354C95.6559 28.1258 95.5323 28.171 95.3696 28.171C95.2098 28.171 95.0877 28.1258 95.0033 28.0354C94.9189 27.9419 94.8767 27.8304 94.8767 27.7008Z" fill="white"/>
<path d="M100.041 33.0547V30.536C100.041 30.3431 100.001 30.1757 99.9231 30.0341C99.8477 29.8894 99.7332 29.7778 99.5794 29.6994C99.4257 29.6211 99.2358 29.5819 99.0097 29.5819C98.7986 29.5819 98.6132 29.618 98.4535 29.6904C98.2967 29.7627 98.1731 29.8577 98.0827 29.9753C97.9953 30.0928 97.9515 30.2195 97.9515 30.3551H97.115C97.115 30.1803 97.1602 30.0069 97.2507 29.8351C97.3411 29.6633 97.4707 29.508 97.6395 29.3693C97.8114 29.2277 98.0164 29.1161 98.2545 29.0347C98.4957 28.9503 98.764 28.9081 99.0594 28.9081C99.4151 28.9081 99.7286 28.9684 100 29.089C100.274 29.2096 100.488 29.392 100.642 29.6361C100.799 29.8773 100.877 30.1803 100.877 30.545V32.8241C100.877 32.9869 100.891 33.1602 100.918 33.3441C100.948 33.528 100.992 33.6862 101.049 33.8189V33.8912H100.176C100.134 33.7948 100.101 33.6666 100.077 33.5069C100.053 33.3441 100.041 33.1934 100.041 33.0547ZM100.185 30.9249L100.194 31.5127H99.3488C99.1107 31.5127 98.8981 31.5323 98.7112 31.5715C98.5243 31.6077 98.3676 31.6634 98.2409 31.7388C98.1143 31.8142 98.0179 31.9091 97.9515 32.0237C97.8852 32.1352 97.8521 32.2664 97.8521 32.4171C97.8521 32.5708 97.8867 32.711 97.9561 32.8376C98.0254 32.9642 98.1294 33.0652 98.2681 33.1406C98.4098 33.2129 98.5831 33.2491 98.7881 33.2491C99.0443 33.2491 99.2704 33.1949 99.4664 33.0863C99.6623 32.9778 99.8176 32.8452 99.9321 32.6884C100.05 32.5316 100.113 32.3794 100.122 32.2317L100.479 32.6341C100.458 32.7608 100.401 32.9009 100.307 33.0547C100.214 33.2084 100.089 33.3561 99.9321 33.4978C99.7784 33.6365 99.5945 33.7526 99.3805 33.846C99.1694 33.9364 98.9313 33.9817 98.666 33.9817C98.3344 33.9817 98.0435 33.9169 97.7933 33.7872C97.5461 33.6576 97.3532 33.4843 97.2145 33.2672C97.0788 33.0471 97.011 32.8015 97.011 32.5301C97.011 32.2679 97.0622 32.0373 97.1647 31.8383C97.2672 31.6363 97.415 31.469 97.6079 31.3364C97.8008 31.2007 98.0329 31.0982 98.3043 31.0289C98.5756 30.9595 98.8785 30.9249 99.2132 30.9249H100.185Z" fill="white"/>
</svg>
