<svg width="43" height="40" viewBox="0 0 43 40" fill="none" xmlns="http://www.w3.org/2000/svg">
<path d="M0 0.505831V9.47725C3.99678 6.08969 7.42875 5.17551 15.8206 5.42564V23.6579C15.5312 30.3141 21.8015 38.8996 33.8599 39.9608C37.7231 40.1214 39.7252 39.8233 42.9278 38.4173V27.3236C41.2878 41.6972 21.8015 34.5586 21.8015 21.2462V0.505831H0Z" fill="#003059"/>
<path d="M24.9849 2.53164V9.47725C30.6765 3.2069 41.9631 2.43517 42.9278 12.4677V1.37403C35.6251 -1.07631 30.6765 0.0234955 24.9849 2.53164Z" fill="#003059"/>
<path d="M0 37.935V27.3236C0.868202 34.6551 10.9008 37.6456 14.7594 31.4717C15.5609 33.0892 16.2323 34.054 17.9428 35.9092C14.1806 40.829 4.43748 39.5749 0 37.935Z" fill="#003059"/>
</svg>
