<svg width="835" height="255" viewBox="0 0 835 255" fill="none" xmlns="http://www.w3.org/2000/svg">
<path d="M0 3.22468V60.4175C25.2314 38.8218 46.8972 32.9939 99.8742 34.5885V150.819C98.0472 193.252 137.631 247.985 213.755 254.75C238.144 255.774 250.783 253.874 271 244.91V174.188C260.647 265.82 137.631 220.311 137.631 135.445V3.22468H0Z" fill="white"/>
<path d="M157.728 16.1392V60.4175C193.658 20.444 264.91 15.5242 271 79.4817V8.75947C224.899 -6.86149 193.658 0.149786 157.728 16.1392Z" fill="white"/>
<path d="M0 241.835V174.188C5.4809 220.926 68.8157 239.991 93.1753 200.632C98.2351 210.943 102.473 217.095 113.272 228.921C89.5213 260.285 28.0135 252.29 0 241.835Z" fill="white"/>
<path d="M354 30C354 27.2386 356.239 25 359 25C361.761 25 364 27.2386 364 30V225C364 227.761 361.761 230 359 230C356.239 230 354 227.761 354 225V30Z" fill="#F8B53B"/>
<path d="M484.978 28.2786L485.933 42.478H484.978C483.705 38.2274 481.888 35.1678 479.526 33.2992C477.165 31.4306 474.331 30.4963 471.025 30.4963C468.253 30.4963 465.748 31.2047 463.509 32.6216C461.271 34.0179 459.505 36.2561 458.212 39.3363C456.939 42.4164 456.302 46.246 456.302 50.8251C456.302 54.6034 456.908 57.8786 458.119 60.6508C459.331 63.4229 461.148 65.5482 463.571 67.0266C466.015 68.5051 468.797 69.2443 471.918 69.2443C474.629 69.2443 477.021 68.6694 479.095 67.5195C481.169 66.349 483.448 64.0389 485.933 60.5892L486.888 61.2052C484.793 64.9219 482.35 67.6427 479.557 69.3675C476.764 71.0924 473.448 71.9548 469.608 71.9548C462.688 71.9548 457.329 69.3881 453.53 64.2545C450.696 60.4352 449.279 55.9382 449.279 50.7635C449.279 46.5951 450.214 42.7655 452.082 39.2747C453.951 35.7838 456.518 33.0836 459.783 31.1739C463.068 29.2437 466.651 28.2786 470.532 28.2786C473.551 28.2786 476.528 29.0178 479.465 30.4963C480.327 30.948 480.943 31.1739 481.313 31.1739C481.867 31.1739 482.35 30.9788 482.76 30.5887C483.294 30.0343 483.674 29.2642 483.9 28.2786H484.978Z" fill="white"/>
<path d="M517.935 57.0162H501.765L498.931 63.6077C498.233 65.2299 497.884 66.4414 497.884 67.2422C497.884 67.8788 498.182 68.4435 498.777 68.9363C499.393 69.4086 500.707 69.7166 502.72 69.8604V71H489.567V69.8604C491.313 69.5523 492.442 69.1519 492.956 68.6591C494.003 67.6735 495.163 65.6714 496.436 62.6528L511.128 28.2786H512.206L526.745 63.0225C527.915 65.8151 528.973 67.6324 529.917 68.4743C530.882 69.2957 532.217 69.7577 533.921 69.8604V71H517.443V69.8604C519.106 69.7782 520.225 69.501 520.8 69.0287C521.395 68.5564 521.693 67.9815 521.693 67.3038C521.693 66.4003 521.282 64.9732 520.461 63.0225L517.935 57.0162ZM517.073 54.7369L509.989 37.8578L502.72 54.7369H517.073ZM518.613 15.6501L509.527 26.2765H508.479L511.714 15.6501H518.613Z" fill="white"/>
<path d="M560.472 71L544.332 35.8557V63.7617C544.332 66.3285 544.609 67.9301 545.164 68.5667C545.924 69.4291 547.125 69.8604 548.768 69.8604H550.246V71H535.708V69.8604H537.186C538.952 69.8604 540.205 69.3265 540.944 68.2587C541.396 67.6016 541.622 66.1026 541.622 63.7617V36.4717C541.622 34.6237 541.416 33.2889 541.006 32.4676C540.718 31.8721 540.184 31.3793 539.404 30.9891C538.644 30.5784 537.412 30.3731 535.708 30.3731V29.2334H547.535L562.69 61.9136L577.598 29.2334H589.425V30.3731H587.978C586.191 30.3731 584.928 30.907 584.189 31.9747C583.737 32.6318 583.511 34.1308 583.511 36.4717V63.7617C583.511 66.3285 583.799 67.9301 584.374 68.5667C585.134 69.4291 586.335 69.8604 587.978 69.8604H589.425V71H571.684V69.8604H573.162C574.949 69.8604 576.201 69.3265 576.92 68.2587C577.372 67.6016 577.598 66.1026 577.598 63.7617V35.8557L561.488 71H560.472Z" fill="white"/>
<path d="M619.641 57.0162H603.471L600.637 63.6077C599.939 65.2299 599.59 66.4414 599.59 67.2422C599.59 67.8788 599.887 68.4435 600.483 68.9363C601.099 69.4086 602.413 69.7166 604.425 69.8604V71H591.273V69.8604C593.019 69.5523 594.148 69.1519 594.661 68.6591C595.709 67.6735 596.869 65.6714 598.142 62.6528L612.834 28.2786H613.912L628.451 63.0225C629.621 65.8151 630.678 67.6324 631.623 68.4743C632.588 69.2957 633.923 69.7577 635.627 69.8604V71H619.148V69.8604C620.812 69.7782 621.931 69.501 622.506 69.0287C623.101 68.5564 623.399 67.9815 623.399 67.3038C623.399 66.4003 622.988 64.9732 622.167 63.0225L619.641 57.0162ZM618.779 54.7369L611.695 37.8578L604.425 54.7369H618.779Z" fill="white"/>
<path d="M678.995 71H667.845L653.708 51.472C652.66 51.513 651.808 51.5336 651.151 51.5336C650.884 51.5336 650.597 51.5336 650.289 51.5336C649.981 51.513 649.662 51.4925 649.334 51.472V63.6077C649.334 66.2361 649.621 67.8685 650.196 68.5051C650.977 69.4086 652.147 69.8604 653.708 69.8604H655.34V71H637.445V69.8604H639.015C640.781 69.8604 642.044 69.2854 642.804 68.1355C643.235 67.4989 643.451 65.9897 643.451 63.6077V36.6257C643.451 33.9974 643.163 32.3649 642.588 31.7283C641.787 30.8248 640.596 30.3731 639.015 30.3731H637.445V29.2334H652.66C657.096 29.2334 660.361 29.562 662.455 30.2191C664.57 30.8556 666.357 32.0466 667.815 33.792C669.293 35.5169 670.032 37.5806 670.032 39.9831C670.032 42.5499 669.19 44.7778 667.507 46.667C665.843 48.5561 663.256 49.8908 659.745 50.6711L668.369 62.6528C670.34 65.4044 672.034 67.232 673.451 68.1355C674.868 69.039 676.716 69.6139 678.995 69.8604V71ZM649.334 49.5315C649.724 49.5315 650.063 49.5418 650.35 49.5623C650.638 49.5623 650.874 49.5623 651.059 49.5623C655.042 49.5623 658.04 48.6999 660.053 46.975C662.086 45.2501 663.102 43.0529 663.102 40.3835C663.102 37.7757 662.281 35.6606 660.638 34.0384C659.016 32.3957 656.86 31.5743 654.17 31.5743C652.979 31.5743 651.367 31.7694 649.334 32.1595V49.5315Z" fill="white"/>
<path d="M707.302 57.0162H691.131L688.297 63.6077C687.599 65.2299 687.25 66.4414 687.25 67.2422C687.25 67.8788 687.548 68.4435 688.143 68.9363C688.759 69.4086 690.074 69.7166 692.086 69.8604V71H678.934V69.8604C680.679 69.5523 681.809 69.1519 682.322 68.6591C683.369 67.6735 684.529 65.6714 685.803 62.6528L700.495 28.2786H701.573L716.111 63.0225C717.281 65.8151 718.339 67.6324 719.284 68.4743C720.249 69.2957 721.583 69.7577 723.288 69.8604V71H706.809V69.8604C708.472 69.7782 709.591 69.501 710.166 69.0287C710.762 68.5564 711.06 67.9815 711.06 67.3038C711.06 66.4003 710.649 64.9732 709.828 63.0225L707.302 57.0162ZM706.439 54.7369L699.355 37.8578L692.086 54.7369H706.439Z" fill="white"/>
<path d="M753.134 71V69.8604H754.705C756.471 69.8604 757.724 69.2957 758.463 68.1663C758.915 67.4887 759.14 65.9691 759.14 63.6077V36.6257C759.14 34.0179 758.853 32.3854 758.278 31.7283C757.477 30.8248 756.286 30.3731 754.705 30.3731H753.134V29.2334H770.137C776.379 29.2334 781.122 29.9419 784.367 31.3587C787.632 32.7756 790.25 35.137 792.221 38.443C794.213 41.749 795.209 45.5684 795.209 49.9011C795.209 55.7123 793.443 60.5686 789.911 64.4701C785.948 68.8234 779.911 71 771.8 71H753.134ZM765.054 67.9815C767.662 68.5564 769.849 68.8439 771.615 68.8439C776.379 68.8439 780.332 67.1704 783.474 63.8233C786.615 60.4762 788.186 55.9382 788.186 50.2091C788.186 44.439 786.615 39.8907 783.474 36.5641C780.332 33.2376 776.297 31.5743 771.369 31.5743C769.521 31.5743 767.416 31.8721 765.054 32.4676V67.9815Z" fill="white"/>
<path d="M810.825 31.5127V48.0222H820.004C822.386 48.0222 823.977 47.6629 824.778 46.9442C825.846 45.9996 826.441 44.3363 826.565 41.9544H827.704V56.4926H826.565C826.277 54.4597 825.99 53.1558 825.702 52.5808C825.332 51.8621 824.727 51.2974 823.885 50.8867C823.043 50.4761 821.749 50.2707 820.004 50.2707H810.825V64.0389C810.825 65.887 810.907 67.0164 811.071 67.427C811.236 67.8172 811.523 68.1355 811.934 68.3819C812.345 68.6078 813.125 68.7207 814.275 68.7207H821.359C823.721 68.7207 825.435 68.5564 826.503 68.2279C827.571 67.8993 828.597 67.2525 829.583 66.2874C830.856 65.0143 832.16 63.0943 833.495 60.5276H834.727L831.123 71H798.936V69.8604H800.414C801.4 69.8604 802.334 69.6242 803.217 69.1519C803.874 68.8234 804.316 68.3306 804.542 67.6735C804.788 67.0164 804.911 65.6714 804.911 63.6385V36.5025C804.911 33.8536 804.644 32.2212 804.11 31.6051C803.371 30.7838 802.139 30.3731 800.414 30.3731H798.936V29.2334H831.123L831.585 38.3814H830.384C829.953 36.1843 829.47 34.675 828.936 33.8536C828.423 33.0323 827.653 32.406 826.626 31.9747C825.805 31.6667 824.357 31.5127 822.283 31.5127H810.825Z" fill="white"/>
<path d="M484.978 101.279L485.933 115.478H484.978C483.705 111.227 481.888 108.168 479.526 106.299C477.165 104.431 474.331 103.496 471.025 103.496C468.253 103.496 465.748 104.205 463.509 105.622C461.271 107.018 459.505 109.256 458.212 112.336C456.939 115.416 456.302 119.246 456.302 123.825C456.302 127.603 456.908 130.879 458.119 133.651C459.331 136.423 461.148 138.548 463.571 140.027C466.015 141.505 468.797 142.244 471.918 142.244C474.629 142.244 477.021 141.669 479.095 140.519C481.169 139.349 483.448 137.039 485.933 133.589L486.888 134.205C484.793 137.922 482.35 140.643 479.557 142.368C476.764 144.092 473.448 144.955 469.608 144.955C462.688 144.955 457.329 142.388 453.53 137.255C450.696 133.435 449.279 128.938 449.279 123.764C449.279 119.595 450.214 115.765 452.082 112.275C453.951 108.784 456.518 106.084 459.783 104.174C463.068 102.244 466.651 101.279 470.532 101.279C473.551 101.279 476.528 102.018 479.465 103.496C480.327 103.948 480.943 104.174 481.313 104.174C481.867 104.174 482.35 103.979 482.76 103.589C483.294 103.034 483.674 102.264 483.9 101.279H484.978Z" fill="white"/>
<path d="M512.145 101.279C517.566 101.279 522.258 103.342 526.221 107.47C530.205 111.576 532.196 116.71 532.196 122.87C532.196 129.215 530.194 134.482 526.19 138.671C522.186 142.86 517.34 144.955 511.652 144.955C505.902 144.955 501.067 142.912 497.145 138.825C493.243 134.739 491.292 129.452 491.292 122.963C491.292 116.33 493.551 110.919 498.069 106.73C501.991 103.096 506.683 101.279 512.145 101.279ZM511.56 103.527C507.822 103.527 504.824 104.913 502.566 107.685C499.752 111.135 498.346 116.186 498.346 122.84C498.346 129.657 499.804 134.903 502.72 138.579C504.958 141.372 507.915 142.768 511.59 142.768C515.512 142.768 518.747 141.238 521.293 138.179C523.86 135.119 525.143 130.293 525.143 123.702C525.143 116.556 523.736 111.227 520.923 107.716C518.664 104.923 515.543 103.527 511.56 103.527Z" fill="white"/>
<path d="M560.472 144L544.332 108.856V136.762C544.332 139.328 544.609 140.93 545.164 141.567C545.924 142.429 547.125 142.86 548.768 142.86H550.246V144H535.708V142.86H537.186C538.952 142.86 540.205 142.326 540.944 141.259C541.396 140.602 541.622 139.103 541.622 136.762V109.472C541.622 107.624 541.416 106.289 541.006 105.468C540.718 104.872 540.184 104.379 539.404 103.989C538.644 103.578 537.412 103.373 535.708 103.373V102.233H547.535L562.69 134.914L577.598 102.233H589.425V103.373H587.978C586.191 103.373 584.928 103.907 584.189 104.975C583.737 105.632 583.511 107.131 583.511 109.472V136.762C583.511 139.328 583.799 140.93 584.374 141.567C585.134 142.429 586.335 142.86 587.978 142.86H589.425V144H571.684V142.86H573.162C574.949 142.86 576.201 142.326 576.92 141.259C577.372 140.602 577.598 139.103 577.598 136.762V108.856L561.488 144H560.472Z" fill="white"/>
<path d="M603.964 104.513V121.022H613.142C615.524 121.022 617.116 120.663 617.916 119.944C618.984 119 619.58 117.336 619.703 114.954H620.843V129.493H619.703C619.415 127.46 619.128 126.156 618.841 125.581C618.471 124.862 617.865 124.297 617.023 123.887C616.181 123.476 614.888 123.271 613.142 123.271H603.964V137.039C603.964 138.887 604.046 140.016 604.21 140.427C604.374 140.817 604.662 141.135 605.072 141.382C605.483 141.608 606.263 141.721 607.413 141.721H614.497C616.859 141.721 618.574 141.556 619.641 141.228C620.709 140.899 621.736 140.253 622.721 139.287C623.995 138.014 625.299 136.094 626.633 133.528H627.865L624.262 144H592.074V142.86H593.553C594.538 142.86 595.473 142.624 596.356 142.152C597.013 141.823 597.454 141.331 597.68 140.673C597.926 140.016 598.05 138.671 598.05 136.638V109.503C598.05 106.854 597.783 105.221 597.249 104.605C596.51 103.784 595.277 103.373 593.553 103.373H592.074V102.233H624.262L624.724 111.381H623.522C623.091 109.184 622.609 107.675 622.075 106.854C621.561 106.032 620.791 105.406 619.765 104.975C618.943 104.667 617.496 104.513 615.422 104.513H603.964Z" fill="white"/>
<path d="M671.973 144H660.823L646.685 124.472C645.638 124.513 644.785 124.534 644.128 124.534C643.861 124.534 643.574 124.534 643.266 124.534C642.958 124.513 642.64 124.493 642.311 124.472V136.608C642.311 139.236 642.599 140.869 643.174 141.505C643.954 142.409 645.124 142.86 646.685 142.86H648.317V144H630.422V142.86H631.993C633.759 142.86 635.021 142.285 635.781 141.135C636.212 140.499 636.428 138.99 636.428 136.608V109.626C636.428 106.997 636.141 105.365 635.566 104.728C634.765 103.825 633.574 103.373 631.993 103.373H630.422V102.233H645.638C650.073 102.233 653.338 102.562 655.432 103.219C657.547 103.856 659.334 105.047 660.792 106.792C662.27 108.517 663.01 110.581 663.01 112.983C663.01 115.55 662.168 117.778 660.484 119.667C658.821 121.556 656.233 122.891 652.722 123.671L661.346 135.653C663.318 138.404 665.012 140.232 666.429 141.135C667.845 142.039 669.693 142.614 671.973 142.86V144ZM642.311 122.531C642.701 122.531 643.04 122.542 643.328 122.562C643.615 122.562 643.851 122.562 644.036 122.562C648.02 122.562 651.018 121.7 653.03 119.975C655.063 118.25 656.079 116.053 656.079 113.383C656.079 110.776 655.258 108.661 653.615 107.038C651.993 105.396 649.837 104.574 647.147 104.574C645.956 104.574 644.344 104.769 642.311 105.16V122.531Z" fill="white"/>
<path d="M709.396 101.279L710.351 115.478H709.396C708.123 111.227 706.306 108.168 703.945 106.299C701.583 104.431 698.749 103.496 695.443 103.496C692.671 103.496 690.166 104.205 687.928 105.622C685.69 107.018 683.924 109.256 682.63 112.336C681.357 115.416 680.72 119.246 680.72 123.825C680.72 127.603 681.326 130.879 682.538 133.651C683.749 136.423 685.566 138.548 687.989 140.027C690.433 141.505 693.215 142.244 696.337 142.244C699.047 142.244 701.439 141.669 703.513 140.519C705.587 139.349 707.867 137.039 710.351 133.589L711.306 134.205C709.212 137.922 706.768 140.643 703.975 142.368C701.183 144.092 697.866 144.955 694.026 144.955C687.106 144.955 681.747 142.388 677.948 137.255C675.115 133.435 673.698 128.938 673.698 123.764C673.698 119.595 674.632 115.765 676.501 112.275C678.369 108.784 680.936 106.084 684.201 104.174C687.486 102.244 691.07 101.279 694.951 101.279C697.969 101.279 700.947 102.018 703.883 103.496C704.745 103.948 705.361 104.174 705.731 104.174C706.285 104.174 706.768 103.979 707.179 103.589C707.713 103.034 708.092 102.264 708.318 101.279H709.396Z" fill="white"/>
<path d="M732.959 142.86V144H715.064V142.86H716.542C718.267 142.86 719.52 142.357 720.3 141.351C720.793 140.694 721.039 139.113 721.039 136.608V109.626C721.039 107.511 720.906 106.114 720.639 105.437C720.433 104.923 720.013 104.482 719.376 104.112C718.472 103.619 717.528 103.373 716.542 103.373H715.064V102.233H732.959V103.373H731.45C729.746 103.373 728.503 103.876 727.723 104.882C727.21 105.539 726.953 107.121 726.953 109.626V136.608C726.953 138.723 727.087 140.119 727.354 140.797C727.559 141.31 727.99 141.752 728.647 142.121C729.53 142.614 730.464 142.86 731.45 142.86H732.959Z" fill="white"/>
<path d="M757.57 101.279C762.991 101.279 767.683 103.342 771.646 107.47C775.629 111.576 777.621 116.71 777.621 122.87C777.621 129.215 775.619 134.482 771.615 138.671C767.611 142.86 762.765 144.955 757.077 144.955C751.327 144.955 746.491 142.912 742.569 138.825C738.668 134.739 736.717 129.452 736.717 122.963C736.717 116.33 738.976 110.919 743.493 106.73C747.415 103.096 752.107 101.279 757.57 101.279ZM756.984 103.527C753.247 103.527 750.249 104.913 747.99 107.685C745.177 111.135 743.771 116.186 743.771 122.84C743.771 129.657 745.229 134.903 748.144 138.579C750.383 141.372 753.34 142.768 757.015 142.768C760.937 142.768 764.171 141.238 766.718 138.179C769.284 135.119 770.568 130.293 770.568 123.702C770.568 116.556 769.161 111.227 766.348 107.716C764.089 104.923 760.968 103.527 756.984 103.527Z" fill="white"/>
<path d="M453.283 176.373V175.233H471.179V176.373H469.67C467.965 176.373 466.723 176.876 465.943 177.882C465.45 178.539 465.204 180.121 465.204 182.626V203.047C465.204 206.189 464.854 208.735 464.156 210.686C463.479 212.636 462.298 214.341 460.614 215.799C458.93 217.236 456.897 217.955 454.516 217.955C452.585 217.955 451.066 217.483 449.957 216.538C448.848 215.573 448.294 214.474 448.294 213.242C448.294 212.236 448.55 211.476 449.064 210.963C449.741 210.326 450.532 210.008 451.435 210.008C452.092 210.008 452.678 210.224 453.191 210.655C453.725 211.086 454.392 212.236 455.193 214.105C455.665 215.214 456.271 215.768 457.01 215.768C457.565 215.768 458.078 215.429 458.55 214.752C459.043 214.074 459.29 212.873 459.29 211.148V182.626C459.29 180.511 459.156 179.114 458.889 178.437C458.684 177.923 458.253 177.482 457.596 177.112C456.713 176.619 455.778 176.373 454.793 176.373H453.283Z" fill="white"/>
<path d="M500.44 203.016H484.27L481.436 209.608C480.738 211.23 480.389 212.441 480.389 213.242C480.389 213.879 480.686 214.443 481.282 214.936C481.898 215.409 483.212 215.717 485.224 215.86V217H472.072V215.86C473.818 215.552 474.947 215.152 475.46 214.659C476.508 213.673 477.668 211.671 478.941 208.653L493.633 174.279H494.711L509.249 209.022C510.42 211.815 511.477 213.632 512.422 214.474C513.387 215.296 514.722 215.758 516.426 215.86V217H499.947V215.86C501.611 215.778 502.73 215.501 503.305 215.029C503.9 214.556 504.198 213.981 504.198 213.304C504.198 212.4 503.787 210.973 502.966 209.022L500.44 203.016ZM499.578 200.737L492.494 183.858L485.224 200.737H499.578Z" fill="white"/>
<path d="M547.258 176.373V175.233H562.043V176.373H560.472C558.829 176.373 557.566 177.061 556.683 178.437C556.252 179.073 556.037 180.552 556.037 182.872V199.813C556.037 204.002 555.616 207.257 554.774 209.577C553.952 211.877 552.32 213.858 549.876 215.522C547.453 217.164 544.147 217.986 539.958 217.986C535.4 217.986 531.94 217.195 529.578 215.614C527.217 214.033 525.543 211.908 524.558 209.238C523.901 207.411 523.572 203.981 523.572 198.95V182.626C523.572 180.059 523.213 178.375 522.494 177.574C521.796 176.773 520.656 176.373 519.075 176.373H517.504V175.233H535.554V176.373H533.952C532.227 176.373 530.995 176.917 530.256 178.006C529.743 178.745 529.486 180.285 529.486 182.626V200.829C529.486 202.452 529.63 204.31 529.917 206.404C530.225 208.499 530.769 210.131 531.55 211.302C532.33 212.472 533.449 213.437 534.907 214.197C536.385 214.957 538.192 215.337 540.328 215.337C543.059 215.337 545.503 214.741 547.659 213.55C549.815 212.359 551.283 210.84 552.063 208.992C552.864 207.123 553.265 203.971 553.265 199.536V182.626C553.265 180.018 552.977 178.385 552.402 177.728C551.601 176.825 550.41 176.373 548.829 176.373H547.258Z" fill="white"/>
<path d="M569.035 176.373V175.233H586.93V176.373H585.421C583.717 176.373 582.474 176.876 581.694 177.882C581.201 178.539 580.955 180.121 580.955 182.626V203.047C580.955 206.189 580.606 208.735 579.908 210.686C579.23 212.636 578.049 214.341 576.365 215.799C574.682 217.236 572.649 217.955 570.267 217.955C568.337 217.955 566.817 217.483 565.708 216.538C564.599 215.573 564.045 214.474 564.045 213.242C564.045 212.236 564.302 211.476 564.815 210.963C565.493 210.326 566.283 210.008 567.187 210.008C567.844 210.008 568.429 210.224 568.942 210.655C569.476 211.086 570.144 212.236 570.944 214.105C571.417 215.214 572.022 215.768 572.762 215.768C573.316 215.768 573.83 215.429 574.302 214.752C574.795 214.074 575.041 212.873 575.041 211.148V182.626C575.041 180.511 574.908 179.114 574.641 178.437C574.435 177.923 574.004 177.482 573.347 177.112C572.464 176.619 571.53 176.373 570.544 176.373H569.035Z" fill="white"/>
<path d="M616.192 203.016H600.021L597.187 209.608C596.489 211.23 596.14 212.441 596.14 213.242C596.14 213.879 596.438 214.443 597.033 214.936C597.649 215.409 598.963 215.717 600.976 215.86V217H587.824V215.86C589.569 215.552 590.698 215.152 591.212 214.659C592.259 213.673 593.419 211.671 594.692 208.653L609.385 174.279H610.463L625.001 209.022C626.171 211.815 627.229 213.632 628.173 214.474C629.138 215.296 630.473 215.758 632.177 215.86V217H615.699V215.86C617.362 215.778 618.481 215.501 619.056 215.029C619.652 214.556 619.949 213.981 619.949 213.304C619.949 212.4 619.539 210.973 618.717 209.022L616.192 203.016ZM615.329 200.737L608.245 183.858L600.976 200.737H615.329Z" fill="white"/>
</svg>
