<svg width="223" height="208" viewBox="0 0 223 208" fill="none" xmlns="http://www.w3.org/2000/svg">
<path d="M0 2.62179V49.1218C20.7158 31.5636 38.5041 26.8253 82 28.1218V122.622C80.5 157.122 113 201.622 175.5 207.122C195.524 207.954 205.901 206.409 222.5 199.122V141.622C214 216.122 113 179.122 113 110.122V2.62179H0Z" fill="#003059"/>
<path d="M129.5 13.1218V49.1218C159 16.6218 217.5 12.6218 222.5 64.6218V7.12179C184.65 -5.57867 159 0.12178 129.5 13.1218Z" fill="#003059"/>
<path d="M0 196.622V141.622C4.5 179.622 56.5 195.122 76.5 163.122C80.6543 171.505 84.134 176.506 93 186.122C73.5 211.622 23 205.122 0 196.622Z" fill="#003059"/>
</svg>
